<svg width="70" height="38" viewBox="0 0 70 38" fill="none" xmlns="http://www.w3.org/2000/svg">
<path d="M28.8477 6.15234C28.8477 9.54468 31.6077 12.3047 35 12.3047C38.3923 12.3047 41.1523 9.54468 41.1523 6.15234C41.1523 2.76001 38.3923 0 35 0C31.6077 0 28.8477 2.76001 28.8477 6.15234Z" fill="black"/>
<path d="M35 16.4062C28.2148 16.4062 22.6953 21.9257 22.6953 28.7109V37.0508H47.3047V28.7109C47.3047 21.9257 41.7852 16.4062 35 16.4062Z" fill="black"/>
<path d="M18.5938 10.2539C18.5938 6.86157 15.8337 4.10156 12.4414 4.10156C9.04907 4.10156 6.28906 6.86157 6.28906 10.2539C6.28906 13.6462 9.04907 16.4062 12.4414 16.4062C15.8337 16.4062 18.5938 13.6462 18.5938 10.2539Z" fill="black"/>
<path d="M63.7109 10.2539C63.7109 6.86157 60.9509 4.10156 57.5586 4.10156C54.1663 4.10156 51.4062 6.86157 51.4062 10.2539C51.4062 13.6462 54.1663 16.4062 57.5586 16.4062C60.9509 16.4062 63.7109 13.6462 63.7109 10.2539Z" fill="black"/>
<path d="M57.5587 20.5078C54.8329 20.5078 52.3383 21.4227 50.2993 22.9223C50.9855 24.729 51.4064 26.6666 51.4064 28.7109V37.0508H70.0001V32.8125C70.0001 26.0166 64.3546 20.5078 57.5587 20.5078Z" fill="black"/>
<path d="M0 32.8125V37.0508H18.5938V28.7109C18.5938 26.6666 19.0146 24.729 19.7009 22.9223C17.6618 21.4227 15.1672 20.5078 12.4414 20.5078C5.64552 20.5078 0 26.0166 0 32.8125Z" fill="black"/>
</svg>
