<svg width="22" height="25" viewBox="0 0 22 25" fill="none" xmlns="http://www.w3.org/2000/svg">
<path d="M19.556 2.51801H14.447C14.1864 1.81391 13.7164 1.20652 13.1002 0.777557C12.4841 0.348597 11.7513 0.118652 11.0005 0.118652C10.2497 0.118652 9.51695 0.348597 8.90078 0.777557C8.28461 1.20652 7.81461 1.81391 7.554 2.51801H2.444C1.80227 2.51426 1.18511 2.76453 0.727224 3.21417C0.26934 3.66381 0.00791182 4.2763 0 4.918V21.718C0.00791182 22.3597 0.26934 22.9722 0.727224 23.4218C1.18511 23.8715 1.80227 24.1218 2.444 24.118H19.556C20.1977 24.1218 20.8149 23.8715 21.2728 23.4218C21.7307 22.9722 21.9921 22.3597 22 21.718V4.918C21.9921 4.2763 21.7307 3.66381 21.2728 3.21417C20.8149 2.76453 20.1977 2.51426 19.556 2.51801ZM11 2.51801C11.2364 2.52234 11.4662 2.5964 11.6606 2.73087C11.855 2.86533 12.0054 3.05422 12.0928 3.27383C12.1803 3.49345 12.201 3.73399 12.1522 3.9653C12.1034 4.19661 11.9875 4.40838 11.8188 4.57401C11.6501 4.73963 11.4363 4.85175 11.2041 4.8963C10.972 4.94085 10.7318 4.91584 10.5138 4.8244C10.2959 4.73297 10.1097 4.57919 9.97881 4.38235C9.8479 4.18552 9.77804 3.95441 9.778 3.71802C9.78196 3.39717 9.91267 3.09091 10.1416 2.86609C10.3706 2.64127 10.6791 2.51613 11 2.51801ZM11 7.31802C11.709 7.33122 12.3983 7.55352 12.9815 7.95703C13.5646 8.36054 14.0156 8.92728 14.2778 9.58615C14.54 10.245 14.6018 10.9667 14.4555 11.6605C14.3091 12.3544 13.961 12.9895 13.455 13.4863C12.949 13.9831 12.3075 14.3194 11.611 14.453C10.9146 14.5865 10.1942 14.5114 9.54031 14.2371C8.88639 13.9628 8.32806 13.5014 7.93537 12.9109C7.54268 12.3204 7.33312 11.6271 7.333 10.918C7.33679 10.4407 7.43471 9.96879 7.62116 9.52936C7.80761 9.08993 8.07893 8.69159 8.41956 8.35718C8.7602 8.02277 9.16346 7.75885 9.60626 7.58054C10.0491 7.40222 10.5227 7.31301 11 7.31802ZM18.333 21.718H3.667V20.038C3.667 17.638 8.556 16.318 11 16.318C13.444 16.318 18.333 17.638 18.333 20.038V21.718Z" fill="#4DA1FF"/>
</svg>
