<svg width="22" height="23" viewBox="0 0 22 23" fill="none" xmlns="http://www.w3.org/2000/svg">
<path fill-rule="evenodd" clip-rule="evenodd" d="M16.148 10.093H5.04601C3.7076 10.093 2.424 9.56132 1.4776 8.61491C0.531195 7.66851 -0.000488281 6.38492 -0.000488281 5.0465C-0.000488281 3.70809 0.531195 2.42449 1.4776 1.47809C2.424 0.531683 3.7076 0 5.04601 0H16.146C17.4844 0 18.768 0.531683 19.7144 1.47809C20.6608 2.42449 21.1925 3.70809 21.1925 5.0465C21.1925 6.38492 20.6608 7.66851 19.7144 8.61491C18.768 9.56132 17.4844 10.093 16.146 10.093H16.148ZM16.148 1.01H5.04601C3.97533 1.01 2.94851 1.43533 2.19142 2.19241C1.43434 2.94949 1.00901 3.97632 1.00901 5.047C1.00901 6.11768 1.43434 7.14451 2.19142 7.90159C2.94851 8.65867 3.97533 9.084 5.04601 9.084H16.146C17.2167 9.084 18.2435 8.65867 19.0006 7.90159C19.7577 7.14451 20.183 6.11768 20.183 5.047C20.183 3.97632 19.7577 2.94949 19.0006 2.19241C18.2435 1.43533 17.2167 1.01 16.146 1.01H16.148ZM5.04801 8.075C4.44913 8.075 3.8637 7.89741 3.36574 7.56469C2.86779 7.23197 2.47969 6.75906 2.2505 6.20577C2.02132 5.65247 1.96136 5.04364 2.07819 4.45627C2.19503 3.86889 2.48342 3.32935 2.90689 2.90588C3.33037 2.48241 3.8699 2.19402 4.45728 2.07718C5.04465 1.96035 5.65348 2.02031 6.20678 2.24949C6.76007 2.47867 7.23298 2.86678 7.5657 3.36473C7.89842 3.86269 8.07601 4.44812 8.07601 5.047C8.07588 5.44473 7.9974 5.83853 7.84504 6.20592C7.69269 6.57331 7.46944 6.90708 7.18807 7.18818C6.9067 7.46928 6.5727 7.69219 6.20516 7.84418C5.83762 7.99617 5.44374 8.07426 5.04601 8.074L5.04801 8.075ZM5.04801 3.029C4.64869 3.029 4.25834 3.14741 3.92632 3.36926C3.59429 3.59111 3.33551 3.90644 3.1827 4.27536C3.02989 4.64429 2.9899 5.05024 3.06781 5.44189C3.14571 5.83354 3.338 6.19329 3.62036 6.47565C3.90273 6.75801 4.26248 6.9503 4.65412 7.02821C5.04577 7.10611 5.45173 7.06613 5.82065 6.91331C6.18957 6.7605 6.5049 6.50172 6.72675 6.1697C6.9486 5.83767 7.06701 5.44732 7.06701 5.048C7.06714 4.78261 7.01495 4.51979 6.91342 4.27459C6.81189 4.02939 6.66301 3.80661 6.47531 3.619C6.2876 3.43138 6.06475 3.28262 5.81949 3.18121C5.57424 3.0798 5.3114 3.02774 5.04601 3.028L5.04801 3.029ZM5.04801 12.112H16.148C16.8107 12.112 17.467 12.2425 18.0792 12.4961C18.6915 12.7498 19.2478 13.1215 19.7164 13.5901C20.185 14.0587 20.5568 14.615 20.8104 15.2273C21.064 15.8396 21.1945 16.4958 21.1945 17.1585C21.1945 17.8212 21.064 18.4774 20.8104 19.0897C20.5568 19.702 20.185 20.2583 19.7164 20.7269C19.2478 21.1955 18.6915 21.5672 18.0792 21.8209C17.467 22.0745 16.8107 22.205 16.148 22.205H5.04601C3.7076 22.205 2.424 21.6733 1.4776 20.7269C0.531195 19.7805 -0.000488281 18.4969 -0.000488281 17.1585C-0.000488281 15.8201 0.531195 14.5365 1.4776 13.5901C2.424 12.6437 3.7076 12.112 5.04601 12.112H5.04801ZM5.04801 21.195H16.148C17.2187 21.195 18.2455 20.7697 19.0026 20.0126C19.7597 19.2555 20.185 18.2287 20.185 17.158C20.185 16.0873 19.7597 15.0605 19.0026 14.3034C18.2455 13.5463 17.2187 13.121 16.148 13.121H5.04601C3.97533 13.121 2.94851 13.5463 2.19142 14.3034C1.43434 15.0605 1.00901 16.0873 1.00901 17.158C1.00901 18.2287 1.43434 19.2555 2.19142 20.0126C2.94851 20.7697 3.97533 21.195 5.04601 21.195H5.04801ZM16.148 14.13C16.7469 14.13 17.3323 14.3076 17.8303 14.6403C18.3282 14.973 18.7163 15.4459 18.9455 15.9992C19.1747 16.5525 19.2347 17.1614 19.1178 17.7487C19.001 18.3361 18.7126 18.8756 18.2891 19.2991C17.8657 19.7226 17.3261 20.011 16.7387 20.1278C16.1514 20.2447 15.5425 20.1847 14.9892 19.9555C14.436 19.7263 13.963 19.3382 13.6303 18.8403C13.2976 18.3423 13.12 17.7569 13.12 17.158C13.12 16.3549 13.439 15.5847 14.0069 15.0169C14.5748 14.449 15.3449 14.13 16.148 14.13ZM16.148 19.176C16.5473 19.176 16.9377 19.0576 17.2697 18.8357C17.6017 18.6139 17.8605 18.2986 18.0133 17.9296C18.1661 17.5607 18.2061 17.1548 18.1282 16.7631C18.0503 16.3715 17.858 16.0117 17.5757 15.7294C17.2933 15.447 16.9335 15.2547 16.5419 15.1768C16.1503 15.0989 15.7443 15.1389 15.3754 15.2917C15.0064 15.4445 14.6911 15.7033 14.4693 16.0353C14.2474 16.3673 14.129 16.7577 14.129 17.157C14.129 17.6925 14.3417 18.206 14.7204 18.5846C15.099 18.9633 15.6125 19.176 16.148 19.176Z" fill="#C4CACF"/>
</svg>
