<svg width="50" height="50" viewBox="0 0 50 50" fill="none" xmlns="http://www.w3.org/2000/svg">
<path d="M11.8164 35.2539C12.6254 35.2539 13.2812 34.598 13.2812 33.789V26.4648H14.7461C17.1692 26.4648 19.1406 24.4934 19.1406 22.0703V19.8322C19.1406 15.2645 16.5606 11.0859 12.4715 9.04138C12.0174 8.81433 11.4782 8.83854 11.0463 9.10554C10.6145 9.37233 10.3516 9.84382 10.3516 10.3515V33.789C10.3516 34.598 11.0074 35.2539 11.8164 35.2539ZM13.2812 13.1212C15.1292 14.8211 16.2109 17.2283 16.2109 19.8322V22.0703C16.2109 22.878 15.5538 23.5351 14.7461 23.5351H13.2812V13.1212Z" fill="black"/>
<path d="M25 23.3033V33.7891C25 34.598 25.6559 35.2539 26.4648 35.2539C27.2738 35.2539 27.9297 34.598 27.9297 33.7891V23.3033C30.7682 22.3946 32.3242 19.2531 32.3242 16.2109C32.3242 11.8259 29.462 8.88672 26.4648 8.88672C23.4401 8.88672 20.6055 11.8657 20.6055 16.2109C20.6055 19.2478 22.1599 22.3941 25 23.3033ZM26.4648 11.8164C28.0529 11.8164 29.3945 13.8288 29.3945 16.2109C29.3945 18.5931 28.0529 20.6055 26.4648 20.6055C24.8768 20.6055 23.5352 18.5931 23.5352 16.2109C23.5352 13.8288 24.8768 11.8164 26.4648 11.8164Z" fill="black"/>
<path d="M11.8164 50H46.9727C47.7816 50 48.4375 49.3441 48.4375 48.5352V39.6484C48.4375 38.8395 47.7816 38.1836 46.9727 38.1836H39.6484V1.46484C39.6484 0.655859 38.9926 0 38.1836 0H3.02734C2.21836 0 1.5625 0.655859 1.5625 1.46484V39.6484C1.5625 45.3563 6.1624 50 11.8164 50ZM45.5078 41.1133V46.9212C42.6358 46.328 40.3694 44.0263 39.7917 41.1133H45.5078ZM4.49219 2.92969H36.7188V39.6484C36.7188 42.5566 37.9134 45.1881 39.8326 47.0703H11.8164C7.77783 47.0703 4.49219 43.7408 4.49219 39.6484V2.92969Z" fill="black"/>
<path d="M11.8164 41.1133H29.3945C30.2035 41.1133 30.8594 40.4574 30.8594 39.6484C30.8594 38.8395 30.2035 38.1836 29.3945 38.1836H11.8164C11.0074 38.1836 10.3516 38.8395 10.3516 39.6484C10.3516 40.4574 11.0074 41.1133 11.8164 41.1133Z" fill="black"/>
</svg>
