<svg width="369" height="139" viewBox="0 0 369 139" fill="none" xmlns="http://www.w3.org/2000/svg">
<line x1="4.37114e-08" y1="13.5" x2="369" y2="13.5" stroke="#F7F7F7"/>
<line x1="4.37114e-08" y1="38.5" x2="369" y2="38.5" stroke="#F7F7F7"/>
<line x1="4.37114e-08" y1="63.5" x2="369" y2="63.5" stroke="#F7F7F7"/>
<line x1="4.37114e-08" y1="88.5" x2="369" y2="88.5" stroke="#F7F7F7"/>
<line x1="4.37114e-08" y1="113.5" x2="369" y2="113.5" stroke="#F7F7F7"/>
<path d="M16 5C16 2.23858 18.2386 0 21 0H23C25.7614 0 28 2.23858 28 5V113H16V5Z" fill="#FF7D84"/>
<path d="M6.04688 128.445H7.20312C7.78646 128.44 8.2474 128.289 8.58594 127.992C8.92969 127.695 9.10156 127.266 9.10156 126.703C9.10156 126.161 8.95833 125.742 8.67188 125.445C8.39062 125.143 7.95833 124.992 7.375 124.992C6.86458 124.992 6.44531 125.141 6.11719 125.438C5.78906 125.729 5.625 126.112 5.625 126.586H3.72656C3.72656 126.003 3.88021 125.471 4.1875 124.992C4.5 124.513 4.93229 124.141 5.48438 123.875C6.04167 123.604 6.66406 123.469 7.35156 123.469C8.48698 123.469 9.3776 123.755 10.0234 124.328C10.6745 124.896 11 125.688 11 126.703C11 127.214 10.8359 127.695 10.5078 128.148C10.1849 128.596 9.76562 128.935 9.25 129.164C9.875 129.378 10.349 129.714 10.6719 130.172C11 130.63 11.1641 131.177 11.1641 131.812C11.1641 132.833 10.8125 133.646 10.1094 134.25C9.41146 134.854 8.49219 135.156 7.35156 135.156C6.25781 135.156 5.36198 134.865 4.66406 134.281C3.96615 133.698 3.61719 132.922 3.61719 131.953H5.51562C5.51562 132.453 5.68229 132.859 6.01562 133.172C6.35417 133.484 6.80729 133.641 7.375 133.641C7.96354 133.641 8.42708 133.484 8.76562 133.172C9.10417 132.859 9.27344 132.406 9.27344 131.812C9.27344 131.214 9.09635 130.753 8.74219 130.43C8.38802 130.107 7.86198 129.945 7.16406 129.945H6.04688V128.445ZM19.2109 130.773V135H17.2344V123.625H21.5859C22.8568 123.625 23.8646 123.956 24.6094 124.617C25.3594 125.279 25.7344 126.154 25.7344 127.242C25.7344 128.357 25.3672 129.224 24.6328 129.844C23.9036 130.464 22.8802 130.773 21.5625 130.773H19.2109ZM19.2109 129.188H21.5859C22.2891 129.188 22.8255 129.023 23.1953 128.695C23.5651 128.362 23.75 127.883 23.75 127.258C23.75 126.643 23.5625 126.154 23.1875 125.789C22.8125 125.419 22.2969 125.229 21.6406 125.219H19.2109V129.188ZM29.0703 126.547L29.125 127.43C29.7188 126.737 30.5312 126.391 31.5625 126.391C32.6927 126.391 33.4661 126.823 33.8828 127.688C34.4974 126.823 35.362 126.391 36.4766 126.391C37.4089 126.391 38.1016 126.648 38.5547 127.164C39.013 127.68 39.2474 128.44 39.2578 129.445V135H37.3594V129.5C37.3594 128.964 37.2422 128.57 37.0078 128.32C36.7734 128.07 36.3854 127.945 35.8438 127.945C35.4115 127.945 35.0573 128.062 34.7812 128.297C34.5104 128.526 34.3203 128.828 34.2109 129.203L34.2188 135H32.3203V129.438C32.2943 128.443 31.7865 127.945 30.7969 127.945C30.0365 127.945 29.4974 128.255 29.1797 128.875V135H27.2812V126.547H29.0703Z" fill="black"/>
<path d="M82 32C82 29.2386 84.2386 27 87 27H89C91.7614 27 94 29.2386 94 32V113H82V32Z" fill="#FABC7B"/>
<path d="M70.3594 129.359L70.9766 123.625H77.0859V125.266H72.5547L72.2422 127.984C72.7682 127.682 73.362 127.531 74.0234 127.531C75.1068 127.531 75.9479 127.878 76.5469 128.57C77.151 129.263 77.4531 130.195 77.4531 131.367C77.4531 132.523 77.1198 133.445 76.4531 134.133C75.7865 134.815 74.8724 135.156 73.7109 135.156C72.6693 135.156 71.8047 134.862 71.1172 134.273C70.4349 133.68 70.0651 132.898 70.0078 131.93H71.8438C71.9167 132.482 72.1146 132.906 72.4375 133.203C72.7604 133.495 73.1823 133.641 73.7031 133.641C74.2865 133.641 74.7396 133.432 75.0625 133.016C75.3906 132.599 75.5547 132.031 75.5547 131.312C75.5547 130.62 75.375 130.073 75.0156 129.672C74.6562 129.266 74.1615 129.062 73.5312 129.062C73.1875 129.062 72.8958 129.109 72.6562 129.203C72.4167 129.292 72.1562 129.469 71.875 129.734L70.3594 129.359ZM90.4531 130.859C90.4531 132.167 90.1562 133.211 89.5625 133.992C88.9688 134.768 88.1719 135.156 87.1719 135.156C86.2448 135.156 85.5026 134.852 84.9453 134.242V138.25H83.0469V126.547H84.7969L84.875 127.406C85.4323 126.729 86.1901 126.391 87.1484 126.391C88.1797 126.391 88.987 126.776 89.5703 127.547C90.1589 128.312 90.4531 129.378 90.4531 130.742V130.859ZM88.5625 130.695C88.5625 129.852 88.3932 129.182 88.0547 128.688C87.7214 128.193 87.2422 127.945 86.6172 127.945C85.8411 127.945 85.2839 128.266 84.9453 128.906V132.656C85.2891 133.312 85.8516 133.641 86.6328 133.641C87.237 133.641 87.7083 133.398 88.0469 132.914C88.3906 132.424 88.5625 131.685 88.5625 130.695ZM93.8516 126.547L93.9062 127.43C94.5 126.737 95.3125 126.391 96.3438 126.391C97.474 126.391 98.2474 126.823 98.6641 127.688C99.2786 126.823 100.143 126.391 101.258 126.391C102.19 126.391 102.883 126.648 103.336 127.164C103.794 127.68 104.029 128.44 104.039 129.445V135H102.141V129.5C102.141 128.964 102.023 128.57 101.789 128.32C101.555 128.07 101.167 127.945 100.625 127.945C100.193 127.945 99.8385 128.062 99.5625 128.297C99.2917 128.526 99.1016 128.828 98.9922 129.203L99 135H97.1016V129.438C97.0755 128.443 96.5677 127.945 95.5781 127.945C94.8177 127.945 94.2786 128.255 93.9609 128.875V135H92.0625V126.547H93.8516Z" fill="black"/>
<path d="M147 19C147 16.2386 149.239 14 152 14H154C156.761 14 159 16.2386 159 19V113H147V19Z" fill="#73E24D"/>
<path d="M142.016 126.625C142.016 127.182 141.872 127.68 141.586 128.117C141.299 128.549 140.909 128.891 140.414 129.141C141.008 129.417 141.464 129.794 141.781 130.273C142.104 130.753 142.266 131.294 142.266 131.898C142.266 132.898 141.927 133.693 141.25 134.281C140.573 134.865 139.672 135.156 138.547 135.156C137.417 135.156 136.51 134.862 135.828 134.273C135.151 133.685 134.812 132.893 134.812 131.898C134.812 131.289 134.974 130.742 135.297 130.258C135.62 129.773 136.073 129.401 136.656 129.141C136.167 128.891 135.779 128.549 135.492 128.117C135.211 127.68 135.07 127.182 135.07 126.625C135.07 125.656 135.383 124.888 136.008 124.32C136.633 123.753 137.477 123.469 138.539 123.469C139.607 123.469 140.453 123.753 141.078 124.32C141.703 124.888 142.016 125.656 142.016 126.625ZM140.367 131.805C140.367 131.242 140.198 130.789 139.859 130.445C139.526 130.096 139.083 129.922 138.531 129.922C137.979 129.922 137.536 130.094 137.203 130.438C136.875 130.781 136.711 131.237 136.711 131.805C136.711 132.362 136.872 132.807 137.195 133.141C137.523 133.474 137.974 133.641 138.547 133.641C139.12 133.641 139.565 133.479 139.883 133.156C140.206 132.833 140.367 132.383 140.367 131.805ZM140.125 126.695C140.125 126.201 139.982 125.794 139.695 125.477C139.409 125.154 139.023 124.992 138.539 124.992C138.055 124.992 137.672 125.146 137.391 125.453C137.109 125.755 136.969 126.169 136.969 126.695C136.969 127.216 137.109 127.63 137.391 127.938C137.677 128.245 138.062 128.398 138.547 128.398C139.031 128.398 139.414 128.245 139.695 127.938C139.982 127.63 140.125 127.216 140.125 126.695ZM155.453 130.859C155.453 132.167 155.156 133.211 154.562 133.992C153.969 134.768 153.172 135.156 152.172 135.156C151.245 135.156 150.503 134.852 149.945 134.242V138.25H148.047V126.547H149.797L149.875 127.406C150.432 126.729 151.19 126.391 152.148 126.391C153.18 126.391 153.987 126.776 154.57 127.547C155.159 128.312 155.453 129.378 155.453 130.742V130.859ZM153.562 130.695C153.562 129.852 153.393 129.182 153.055 128.688C152.721 128.193 152.242 127.945 151.617 127.945C150.841 127.945 150.284 128.266 149.945 128.906V132.656C150.289 133.312 150.852 133.641 151.633 133.641C152.237 133.641 152.708 133.398 153.047 132.914C153.391 132.424 153.562 131.685 153.562 130.695ZM158.852 126.547L158.906 127.43C159.5 126.737 160.312 126.391 161.344 126.391C162.474 126.391 163.247 126.823 163.664 127.688C164.279 126.823 165.143 126.391 166.258 126.391C167.19 126.391 167.883 126.648 168.336 127.164C168.794 127.68 169.029 128.44 169.039 129.445V135H167.141V129.5C167.141 128.964 167.023 128.57 166.789 128.32C166.555 128.07 166.167 127.945 165.625 127.945C165.193 127.945 164.839 128.062 164.562 128.297C164.292 128.526 164.102 128.828 163.992 129.203L164 135H162.102V129.438C162.076 128.443 161.568 127.945 160.578 127.945C159.818 127.945 159.279 128.255 158.961 128.875V135H157.062V126.547H158.852Z" fill="black"/>
<path d="M212 74C212 71.2386 214.239 69 217 69H219C221.761 69 224 71.2386 224 74V113H212V74Z" fill="#5A95F2"/>
<path d="M207.422 124.68L202.875 135H200.883L205.422 125.148H199.539V123.625H207.422V124.68ZM220.453 130.859C220.453 132.167 220.156 133.211 219.562 133.992C218.969 134.768 218.172 135.156 217.172 135.156C216.245 135.156 215.503 134.852 214.945 134.242V138.25H213.047V126.547H214.797L214.875 127.406C215.432 126.729 216.19 126.391 217.148 126.391C218.18 126.391 218.987 126.776 219.57 127.547C220.159 128.312 220.453 129.378 220.453 130.742V130.859ZM218.562 130.695C218.562 129.852 218.393 129.182 218.055 128.688C217.721 128.193 217.242 127.945 216.617 127.945C215.841 127.945 215.284 128.266 214.945 128.906V132.656C215.289 133.312 215.852 133.641 216.633 133.641C217.237 133.641 217.708 133.398 218.047 132.914C218.391 132.424 218.562 131.685 218.562 130.695ZM223.852 126.547L223.906 127.43C224.5 126.737 225.312 126.391 226.344 126.391C227.474 126.391 228.247 126.823 228.664 127.688C229.279 126.823 230.143 126.391 231.258 126.391C232.19 126.391 232.883 126.648 233.336 127.164C233.794 127.68 234.029 128.44 234.039 129.445V135H232.141V129.5C232.141 128.964 232.023 128.57 231.789 128.32C231.555 128.07 231.167 127.945 230.625 127.945C230.193 127.945 229.839 128.062 229.562 128.297C229.292 128.526 229.102 128.828 228.992 129.203L229 135H227.102V129.438C227.076 128.443 226.568 127.945 225.578 127.945C224.818 127.945 224.279 128.255 223.961 128.875V135H222.062V126.547H223.852Z" fill="black"/>
<path d="M277 52C277 49.2386 279.239 47 282 47H284C286.761 47 289 49.2386 289 52V113H277V52Z" fill="#137DC0"/>
<path d="M270.234 130.242C269.599 130.914 268.857 131.25 268.008 131.25C267.008 131.25 266.211 130.901 265.617 130.203C265.023 129.5 264.727 128.578 264.727 127.438C264.727 126.688 264.878 126.008 265.18 125.398C265.482 124.789 265.911 124.315 266.469 123.977C267.026 123.638 267.672 123.469 268.406 123.469C269.552 123.469 270.461 123.896 271.133 124.75C271.805 125.604 272.141 126.747 272.141 128.18V128.711C272.141 130.763 271.677 132.328 270.75 133.406C269.823 134.484 268.44 135.031 266.602 135.047H266.375V133.477H266.648C267.768 133.461 268.628 133.193 269.227 132.672C269.826 132.146 270.161 131.336 270.234 130.242ZM268.406 129.766C268.786 129.766 269.143 129.656 269.477 129.438C269.81 129.219 270.068 128.917 270.25 128.531V127.789C270.25 126.951 270.078 126.276 269.734 125.766C269.391 125.255 268.945 125 268.398 125C267.852 125 267.414 125.227 267.086 125.68C266.763 126.128 266.602 126.695 266.602 127.383C266.602 128.096 266.766 128.672 267.094 129.109C267.422 129.547 267.859 129.766 268.406 129.766ZM285.453 130.859C285.453 132.167 285.156 133.211 284.562 133.992C283.969 134.768 283.172 135.156 282.172 135.156C281.245 135.156 280.503 134.852 279.945 134.242V138.25H278.047V126.547H279.797L279.875 127.406C280.432 126.729 281.19 126.391 282.148 126.391C283.18 126.391 283.987 126.776 284.57 127.547C285.159 128.312 285.453 129.378 285.453 130.742V130.859ZM283.562 130.695C283.562 129.852 283.393 129.182 283.055 128.688C282.721 128.193 282.242 127.945 281.617 127.945C280.841 127.945 280.284 128.266 279.945 128.906V132.656C280.289 133.312 280.852 133.641 281.633 133.641C282.237 133.641 282.708 133.398 283.047 132.914C283.391 132.424 283.562 131.685 283.562 130.695ZM288.852 126.547L288.906 127.43C289.5 126.737 290.312 126.391 291.344 126.391C292.474 126.391 293.247 126.823 293.664 127.688C294.279 126.823 295.143 126.391 296.258 126.391C297.19 126.391 297.883 126.648 298.336 127.164C298.794 127.68 299.029 128.44 299.039 129.445V135H297.141V129.5C297.141 128.964 297.023 128.57 296.789 128.32C296.555 128.07 296.167 127.945 295.625 127.945C295.193 127.945 294.839 128.062 294.562 128.297C294.292 128.526 294.102 128.828 293.992 129.203L294 135H292.102V129.438C292.076 128.443 291.568 127.945 290.578 127.945C289.818 127.945 289.279 128.255 288.961 128.875V135H287.062V126.547H288.852Z" fill="black"/>
<path d="M342 21C342 18.2386 344.239 16 347 16H349C351.761 16 354 18.2386 354 21V113H342V21Z" fill="#0A5499"/>
<path d="M334.992 135H333.102V125.867L330.312 126.82V125.219L334.75 123.586H334.992V135ZM350.453 130.859C350.453 132.167 350.156 133.211 349.562 133.992C348.969 134.768 348.172 135.156 347.172 135.156C346.245 135.156 345.503 134.852 344.945 134.242V138.25H343.047V126.547H344.797L344.875 127.406C345.432 126.729 346.19 126.391 347.148 126.391C348.18 126.391 348.987 126.776 349.57 127.547C350.159 128.312 350.453 129.378 350.453 130.742V130.859ZM348.562 130.695C348.562 129.852 348.393 129.182 348.055 128.688C347.721 128.193 347.242 127.945 346.617 127.945C345.841 127.945 345.284 128.266 344.945 128.906V132.656C345.289 133.312 345.852 133.641 346.633 133.641C347.237 133.641 347.708 133.398 348.047 132.914C348.391 132.424 348.562 131.685 348.562 130.695ZM353.852 126.547L353.906 127.43C354.5 126.737 355.312 126.391 356.344 126.391C357.474 126.391 358.247 126.823 358.664 127.688C359.279 126.823 360.143 126.391 361.258 126.391C362.19 126.391 362.883 126.648 363.336 127.164C363.794 127.68 364.029 128.44 364.039 129.445V135H362.141V129.5C362.141 128.964 362.023 128.57 361.789 128.32C361.555 128.07 361.167 127.945 360.625 127.945C360.193 127.945 359.839 128.062 359.562 128.297C359.292 128.526 359.102 128.828 358.992 129.203L359 135H357.102V129.438C357.076 128.443 356.568 127.945 355.578 127.945C354.818 127.945 354.279 128.255 353.961 128.875V135H352.062V126.547H353.852Z" fill="black"/>
</svg>
