<svg width="360" height="201" viewBox="0 0 360 201" fill="none" xmlns="http://www.w3.org/2000/svg">
<path d="M266.936 85.968V90H268.76V85.968L272.44 78.88H270.424L267.848 84.336L265.272 78.88H263.24L266.936 85.968ZM282.288 85.584C282.288 82.816 280.304 81.04 277.792 81.04C275.28 81.04 273.296 82.816 273.296 85.584C273.296 88.352 275.2 90.144 277.712 90.144C280.24 90.144 282.288 88.352 282.288 85.584ZM275.152 85.584C275.152 83.584 276.384 82.624 277.76 82.624C279.12 82.624 280.416 83.584 280.416 85.584C280.416 87.584 279.072 88.56 277.712 88.56C276.336 88.56 275.152 87.584 275.152 85.584ZM292.075 81.184H290.251V86.096C290.251 87.712 289.371 88.544 288.027 88.544C286.699 88.544 285.819 87.712 285.819 86.096V81.184H284.011V86.368C284.011 88.832 285.579 90.128 287.643 90.128C288.683 90.128 289.675 89.696 290.251 88.944V90H292.075V81.184ZM296.305 85.36C296.305 83.488 297.137 82.928 298.481 82.928H298.945V81.04C297.697 81.04 296.817 81.584 296.305 82.464V81.184H294.481V90H296.305V85.36ZM312.282 86.848C312.282 82.784 306.394 84.352 306.394 81.84C306.394 80.768 307.21 80.256 308.266 80.288C309.418 80.32 310.074 81.008 310.138 81.76H312.154C311.994 79.856 310.49 78.736 308.362 78.736C306.09 78.736 304.538 79.952 304.538 81.904C304.538 86 310.442 84.256 310.442 86.944C310.442 87.888 309.722 88.576 308.442 88.576C307.178 88.576 306.538 87.84 306.458 86.928H304.506C304.506 88.896 306.218 90.112 308.442 90.112C310.922 90.112 312.282 88.512 312.282 86.848ZM313.826 85.584C313.826 88.352 315.618 90.144 318.146 90.144C320.306 90.144 321.714 88.944 322.21 87.216H320.242C319.906 88.128 319.234 88.608 318.146 88.608C316.674 88.608 315.698 87.52 315.698 85.584C315.698 83.664 316.674 82.576 318.146 82.576C319.234 82.576 319.938 83.12 320.242 83.968H322.21C321.714 82.112 320.306 81.04 318.146 81.04C315.618 81.04 313.826 82.832 313.826 85.584ZM332.428 85.584C332.428 82.816 330.444 81.04 327.932 81.04C325.42 81.04 323.436 82.816 323.436 85.584C323.436 88.352 325.34 90.144 327.852 90.144C330.38 90.144 332.428 88.352 332.428 85.584ZM325.292 85.584C325.292 83.584 326.524 82.624 327.9 82.624C329.26 82.624 330.556 83.584 330.556 85.584C330.556 87.584 329.212 88.56 327.852 88.56C326.476 88.56 325.292 87.584 325.292 85.584ZM336.055 85.36C336.055 83.488 336.887 82.928 338.231 82.928H338.695V81.04C337.447 81.04 336.567 81.584 336.055 82.464V81.184H334.231V90H336.055V85.36ZM344.084 82.576C345.444 82.576 346.516 83.44 346.548 84.8H341.668C341.86 83.408 342.852 82.576 344.084 82.576ZM348.212 87.376H346.244C345.908 88.064 345.284 88.608 344.164 88.608C342.82 88.608 341.78 87.728 341.652 86.272H348.388C348.436 85.968 348.452 85.68 348.452 85.376C348.452 82.784 346.676 81.04 344.164 81.04C341.556 81.04 339.764 82.816 339.764 85.584C339.764 88.352 341.636 90.144 344.164 90.144C346.324 90.144 347.716 88.912 348.212 87.376Z" fill="black"/>
<rect x="219" y="76" width="31" height="17" rx="4" fill="#FF7D84"/>
<path d="M269.272 112.736C266.136 112.736 263.592 115.088 263.592 118.416C263.592 121.76 266.136 124.096 269.272 124.096C272.264 124.096 274.44 121.904 274.776 119.328V117.904H268.648V119.36H272.824C272.552 121.232 271.288 122.448 269.272 122.448C267.064 122.448 265.464 120.864 265.464 118.416C265.464 115.968 267.064 114.4 269.272 114.4C270.6 114.4 271.656 114.96 272.248 116.08H274.44C273.592 113.904 271.592 112.736 269.272 112.736ZM278.399 119.36C278.399 117.488 279.231 116.928 280.575 116.928H281.039V115.04C279.791 115.04 278.911 115.584 278.399 116.464V115.184H276.575V124H278.399V119.36ZM291.116 119.584C291.116 116.816 289.132 115.04 286.62 115.04C284.108 115.04 282.124 116.816 282.124 119.584C282.124 122.352 284.028 124.144 286.54 124.144C289.068 124.144 291.116 122.352 291.116 119.584ZM283.98 119.584C283.98 117.584 285.212 116.624 286.588 116.624C287.948 116.624 289.244 117.584 289.244 119.584C289.244 121.584 287.9 122.56 286.54 122.56C285.164 122.56 283.98 121.584 283.98 119.584ZM294.631 124H296.551L298.327 117.488L300.103 124H302.023L304.759 115.184H302.967L301.143 122.24L299.351 115.184H297.447L295.575 122.272L293.735 115.184H291.879L294.631 124ZM306.41 121.552C306.41 123.344 307.386 124 308.954 124H310.394V122.48H309.274C308.506 122.48 308.25 122.208 308.25 121.552V116.672H310.394V115.184H308.25V112.992H306.41V115.184H305.37V116.672H306.41V121.552ZM312.075 124H313.899V119.072C313.899 117.456 314.779 116.624 316.123 116.624C317.451 116.624 318.331 117.456 318.331 119.072V124H320.139V118.8C320.139 116.336 318.603 115.04 316.635 115.04C315.499 115.04 314.507 115.472 313.899 116.208V112.16H312.075V124ZM274.952 142.416C274.952 139.088 272.44 136.736 269.272 136.736C266.136 136.736 263.592 139.088 263.592 142.416C263.592 145.76 266.136 148.112 269.272 148.112C272.44 148.112 274.952 145.76 274.952 142.416ZM265.464 142.416C265.464 139.904 267.064 138.336 269.272 138.336C271.48 138.336 273.08 139.904 273.08 142.416C273.08 144.928 271.48 146.528 269.272 146.528C267.064 146.528 265.464 144.928 265.464 142.416ZM278.571 140.48V139.184H276.747V152.192H278.571V146.72C279.147 147.408 280.187 148.144 281.643 148.144C283.963 148.144 285.787 146.272 285.787 143.552C285.787 140.832 283.963 139.04 281.643 139.04C280.203 139.04 279.131 139.744 278.571 140.48ZM283.931 143.552C283.931 145.456 282.619 146.56 281.243 146.56C279.883 146.56 278.571 145.488 278.571 143.584C278.571 141.696 279.883 140.624 281.243 140.624C282.619 140.624 283.931 141.648 283.931 143.552ZM289.415 140.48V139.184H287.591V152.192H289.415V146.72C289.991 147.408 291.031 148.144 292.487 148.144C294.807 148.144 296.631 146.272 296.631 143.552C296.631 140.832 294.807 139.04 292.487 139.04C291.047 139.04 289.975 139.744 289.415 140.48ZM294.775 143.552C294.775 145.456 293.463 146.56 292.087 146.56C290.727 146.56 289.415 145.488 289.415 143.584C289.415 141.696 290.727 140.624 292.087 140.624C293.463 140.624 294.775 141.648 294.775 143.552ZM306.834 143.584C306.834 140.816 304.85 139.04 302.338 139.04C299.826 139.04 297.842 140.816 297.842 143.584C297.842 146.352 299.746 148.144 302.258 148.144C304.786 148.144 306.834 146.352 306.834 143.584ZM299.698 143.584C299.698 141.584 300.93 140.624 302.306 140.624C303.666 140.624 304.962 141.584 304.962 143.584C304.962 145.584 303.618 146.56 302.258 146.56C300.882 146.56 299.698 145.584 299.698 143.584ZM310.462 143.36C310.462 141.488 311.294 140.928 312.638 140.928H313.102V139.04C311.854 139.04 310.974 139.584 310.462 140.464V139.184H308.638V148H310.462V143.36ZM315.066 145.552C315.066 147.344 316.042 148 317.61 148H319.05V146.48H317.93C317.162 146.48 316.906 146.208 316.906 145.552V140.672H319.05V139.184H316.906V136.992H315.066V139.184H314.026V140.672H315.066V145.552ZM328.715 139.184H326.891V144.096C326.891 145.712 326.011 146.544 324.667 146.544C323.339 146.544 322.459 145.712 322.459 144.096V139.184H320.651V144.368C320.651 146.832 322.219 148.128 324.283 148.128C325.323 148.128 326.315 147.696 326.891 146.944V148H328.715V139.184ZM337.378 148H339.186V142.8C339.186 140.336 337.634 139.04 335.57 139.04C334.514 139.04 333.538 139.472 332.946 140.192V139.184H331.122V148H332.946V143.072C332.946 141.456 333.826 140.624 335.17 140.624C336.498 140.624 337.378 141.456 337.378 143.072V148ZM341.513 148H343.337V139.184H341.513V148ZM342.441 138.016C343.081 138.016 343.593 137.504 343.593 136.848C343.593 136.192 343.081 135.68 342.441 135.68C341.785 135.68 341.273 136.192 341.273 136.848C341.273 137.504 341.785 138.016 342.441 138.016ZM346.019 145.552C346.019 147.344 346.995 148 348.563 148H350.003V146.48H348.883C348.115 146.48 347.859 146.208 347.859 145.552V140.672H350.003V139.184H347.859V136.992H346.019V139.184H344.979V140.672H346.019V145.552ZM355.156 145.904L352.676 139.184H350.644L354.116 147.856L352.324 152.144H354.212L359.62 139.184H357.732L355.156 145.904Z" fill="black"/>
<rect x="219" y="120" width="31" height="17" rx="4" fill="#5A95F2"/>
<circle cx="100.315" cy="100.315" r="62.0369" transform="rotate(10.054 100.315 100.315)" stroke="#FF7D84" stroke-width="49"/>
<mask id="mask0" mask-type="alpha" maskUnits="userSpaceOnUse" x="0" y="0" width="201" height="201">
<circle cx="100.315" cy="100.315" r="62.0369" transform="rotate(10.054 100.315 100.315)" stroke="#BA510F" stroke-width="49"/>
</mask>
<g mask="url(#mask0)">
<path d="M100.822 99.9614L107.23 -9.84082L87.8215 -8.28675L100.822 99.9614Z" fill="#5A95F2" stroke="white" stroke-width="2"/>
</g>
<path d="M78.53 102.31C78.674 104.236 80.006 106.018 82.796 106.018C86.27 106.018 87.26 103.606 87.26 99.142C87.26 94.984 86.162 92.572 82.598 92.572C79.826 92.572 78.17 94.3 78.17 96.928C78.17 99.7 79.988 101.122 82.256 101.122C83.408 101.122 84.47 100.672 85.028 99.898C85.028 102.85 84.38 103.948 82.904 103.948C81.734 103.948 81.068 103.354 80.87 102.31H78.53ZM82.778 99.07C81.248 99.07 80.582 98.098 80.582 96.91C80.582 95.596 81.374 94.714 82.688 94.714C83.966 94.714 84.794 95.506 84.794 96.946C84.794 98.224 84.038 99.07 82.778 99.07ZM91.4176 99.052C90.1216 99.592 89.3116 100.726 89.3116 102.274C89.3116 104.776 91.3636 106.288 94.0456 106.288C96.7456 106.288 98.7976 104.776 98.7976 102.274C98.7976 100.744 97.9876 99.61 96.6916 99.052C97.7176 98.53 98.4736 97.54 98.4736 96.154C98.4736 94.282 97.0336 92.626 94.0456 92.626C91.0576 92.626 89.6176 94.264 89.6176 96.154C89.6176 97.576 90.3376 98.494 91.4176 99.052ZM94.0456 98.314C92.9116 98.314 92.0836 97.612 92.0836 96.532C92.0836 95.308 92.8756 94.66 94.0456 94.66C95.2516 94.66 96.0256 95.326 96.0256 96.514C96.0256 97.594 95.1976 98.314 94.0456 98.314ZM94.0456 100.15C95.3956 100.15 96.3316 100.87 96.3316 102.166C96.3316 103.318 95.4856 104.2 94.0456 104.2C92.6056 104.2 91.7416 103.336 91.7416 102.166C91.7416 100.834 92.7316 100.15 94.0456 100.15ZM104.789 96.1C104.789 97.99 106.013 99.034 107.651 99.034C109.289 99.034 110.513 97.99 110.513 96.1C110.513 94.228 109.289 93.184 107.651 93.184C106.013 93.184 104.789 94.228 104.789 96.1ZM107.633 94.696C108.263 94.696 108.659 95.11 108.659 96.1C108.659 97.09 108.263 97.522 107.633 97.522C107.021 97.522 106.643 97.09 106.643 96.1C106.643 95.11 107.021 94.696 107.633 94.696ZM106.823 106H109.271L116.345 93.4H113.879L106.823 106ZM112.691 103.282C112.691 105.19 113.915 106.216 115.553 106.216C117.173 106.216 118.379 105.19 118.379 103.282C118.379 101.392 117.173 100.366 115.553 100.366C113.915 100.366 112.691 101.392 112.691 103.282ZM115.535 101.878C116.147 101.878 116.543 102.292 116.543 103.282C116.543 104.29 116.147 104.704 115.535 104.704C114.905 104.704 114.509 104.29 114.509 103.282C114.509 102.292 114.905 101.878 115.535 101.878Z" fill="black"/>
</svg>
