<svg width="189" height="129" viewBox="0 0 189 129" fill="none" xmlns="http://www.w3.org/2000/svg">
<path d="M95 80C117.091 80 135 62.0914 135 40C135 17.9086 117.091 0 95 0C72.9086 0 55 17.9086 55 40C55 62.0914 72.9086 80 95 80Z" fill="#E7ECED"/>
<path d="M95 5.51724C114.014 5.51724 129.483 20.9862 129.483 40C129.483 59.0138 114.014 74.4828 95 74.4828C75.9862 74.4828 60.5172 59.0138 60.5172 40C60.5172 20.9862 75.9862 5.51724 95 5.51724ZM95 0C72.909 0 55 17.909 55 40C55 62.091 72.909 80 95 80C117.091 80 135 62.091 135 40C135 17.909 117.091 0 95 0Z" fill="#FF7D84"/>
<path d="M95 8.10898C94.2387 8.10898 93.6207 8.72553 93.6207 9.48829V10.8676C93.6207 11.6304 94.2387 12.2469 95 12.2469C95.7614 12.2469 96.3793 11.6304 96.3793 10.8676V9.48829C96.3793 8.72553 95.7614 8.10898 95 8.10898Z" fill="#0A5499"/>
<path d="M95 67.4193C94.2387 67.4193 93.6207 68.0359 93.6207 68.7986V70.1779C93.6207 70.9407 94.2387 71.5572 95 71.5572C95.7614 71.5572 96.3793 70.9407 96.3793 70.1779V68.7986C96.3793 68.0359 95.7614 67.4193 95 67.4193Z" fill="#0A5499"/>
<path d="M125.345 38.4538H123.966C123.204 38.4538 122.586 39.0703 122.586 39.8331C122.586 40.5959 123.204 41.2124 123.966 41.2124H125.345C126.106 41.2124 126.724 40.5959 126.724 39.8331C126.724 39.0703 126.106 38.4538 125.345 38.4538Z" fill="#0A5499"/>
<path d="M66.0345 38.4538H64.6552C63.8938 38.4538 63.2759 39.0703 63.2759 39.8331C63.2759 40.5959 63.8938 41.2124 64.6552 41.2124H66.0345C66.7959 41.2124 67.4138 40.5959 67.4138 39.8331C67.4138 39.0703 66.7959 38.4538 66.0345 38.4538Z" fill="#0A5499"/>
<path d="M115.481 17.4L114.506 18.3752C113.967 18.9145 113.967 19.7862 114.506 20.3255C114.775 20.5945 115.128 20.7297 115.481 20.7297C115.835 20.7297 116.188 20.5945 116.457 20.3255L117.432 19.3504C117.971 18.811 117.971 17.9393 117.432 17.4C116.892 16.8607 116.021 16.8607 115.481 17.4Z" fill="#0A5499"/>
<path d="M73.5435 59.3393L72.5683 60.3145C72.029 60.8538 72.029 61.7255 72.5683 62.2648C72.8373 62.5338 73.1904 62.669 73.5435 62.669C73.8966 62.669 74.2497 62.5338 74.5186 62.2648L75.4938 61.2897C76.0331 60.7504 76.0331 59.8786 75.4938 59.3393C74.9545 58.8 74.0814 58.8014 73.5435 59.3393Z" fill="#0A5499"/>
<path d="M116.457 59.3393C115.917 58.8 115.046 58.8 114.506 59.3393C113.967 59.8786 113.967 60.7504 114.506 61.2897L115.481 62.2648C115.75 62.5338 116.103 62.669 116.457 62.669C116.81 62.669 117.163 62.5338 117.432 62.2648C117.971 61.7255 117.971 60.8538 117.432 60.3145L116.457 59.3393Z" fill="#0A5499"/>
<path d="M74.5186 17.4C73.9793 16.8607 73.1076 16.8607 72.5683 17.4C72.029 17.9393 72.029 18.811 72.5683 19.3504L73.5435 20.3255C73.8124 20.5945 74.1655 20.7297 74.5186 20.7297C74.8718 20.7297 75.2249 20.5945 75.4938 20.3255C76.0331 19.7862 76.0331 18.9145 75.4938 18.3752L74.5186 17.4Z" fill="#0A5499"/>
<path d="M90.8621 39.8331H79.8276" stroke="#FF7D84" stroke-width="2" stroke-miterlimit="10" stroke-linecap="round" stroke-linejoin="round"/>
<path d="M95 35.6952V20.5228" stroke="#FF7D84" stroke-width="2" stroke-miterlimit="10" stroke-linecap="round" stroke-linejoin="round"/>
<path d="M95 43.9711C97.2853 43.9711 99.1379 42.1184 99.1379 39.8331C99.1379 37.5478 97.2853 35.6952 95 35.6952C92.7147 35.6952 90.8621 37.5478 90.8621 39.8331C90.8621 42.1184 92.7147 43.9711 95 43.9711Z" stroke="#FF7D84" stroke-width="2" stroke-miterlimit="10" stroke-linecap="round" stroke-linejoin="round"/>
<path d="M14.875 122H1.49023V119.717L8.12109 112.484C9.07812 111.418 9.75716 110.529 10.1582 109.818C10.5684 109.098 10.7734 108.378 10.7734 107.658C10.7734 106.71 10.5046 105.945 9.9668 105.361C9.43815 104.778 8.72266 104.486 7.82031 104.486C6.74479 104.486 5.91081 104.814 5.31836 105.471C4.72591 106.127 4.42969 107.025 4.42969 108.164H1.10742C1.10742 106.952 1.38086 105.863 1.92773 104.896C2.48372 103.921 3.27214 103.165 4.29297 102.627C5.32292 102.089 6.50781 101.82 7.84766 101.82C9.77995 101.82 11.3021 102.308 12.4141 103.283C13.5352 104.249 14.0957 105.589 14.0957 107.303C14.0957 108.296 13.8132 109.34 13.248 110.434C12.6921 111.518 11.776 112.753 10.5 114.139L5.63281 119.348H14.875V122ZM27.7402 101.998V104.746H27.3301C25.4707 104.773 23.985 105.284 22.873 106.277C21.7611 107.271 21.1003 108.679 20.8906 110.502C21.957 109.381 23.3197 108.82 24.9785 108.82C26.7376 108.82 28.123 109.44 29.1348 110.68C30.1556 111.919 30.666 113.519 30.666 115.479C30.666 117.502 30.069 119.143 28.875 120.4C27.6901 121.649 26.1315 122.273 24.1992 122.273C22.2122 122.273 20.599 121.54 19.3594 120.072C18.1289 118.605 17.5137 116.682 17.5137 114.303V113.168C17.5137 109.677 18.3613 106.943 20.0566 104.965C21.7611 102.987 24.2083 101.998 27.3984 101.998H27.7402ZM24.1719 111.5C23.4427 111.5 22.7728 111.705 22.1621 112.115C21.5605 112.525 21.1185 113.072 20.8359 113.756V114.768C20.8359 116.244 21.1458 117.42 21.7656 118.295C22.3854 119.161 23.1875 119.594 24.1719 119.594C25.1562 119.594 25.9355 119.225 26.5098 118.486C27.084 117.748 27.3711 116.777 27.3711 115.574C27.3711 114.371 27.0794 113.391 26.4961 112.635C25.9128 111.878 25.138 111.5 24.1719 111.5ZM42.7383 113.674C41.6263 114.85 40.3275 115.438 38.8418 115.438C37.0918 115.438 35.6973 114.827 34.6582 113.605C33.6191 112.375 33.0996 110.762 33.0996 108.766C33.0996 107.453 33.3639 106.264 33.8926 105.197C34.4212 104.131 35.1732 103.301 36.1484 102.709C37.1237 102.117 38.2539 101.82 39.5391 101.82C41.5443 101.82 43.1348 102.568 44.3105 104.062C45.4863 105.557 46.0742 107.558 46.0742 110.064V110.994C46.0742 114.585 45.263 117.324 43.6406 119.211C42.0182 121.098 39.5983 122.055 36.3809 122.082H35.9844V119.334H36.4629C38.4225 119.307 39.9264 118.837 40.9746 117.926C42.0228 117.005 42.6107 115.588 42.7383 113.674ZM39.5391 112.84C40.2044 112.84 40.8288 112.648 41.4121 112.266C41.9954 111.883 42.4466 111.354 42.7656 110.68V109.381C42.7656 107.913 42.4648 106.733 41.8633 105.84C41.2617 104.947 40.4824 104.5 39.5254 104.5C38.5684 104.5 37.8027 104.896 37.2285 105.689C36.6634 106.473 36.3809 107.467 36.3809 108.67C36.3809 109.919 36.668 110.926 37.2422 111.691C37.8164 112.457 38.582 112.84 39.5391 112.84ZM62.6172 122H49.2324V119.717L55.8633 112.484C56.8203 111.418 57.4993 110.529 57.9004 109.818C58.3105 109.098 58.5156 108.378 58.5156 107.658C58.5156 106.71 58.2467 105.945 57.709 105.361C57.1803 104.778 56.4648 104.486 55.5625 104.486C54.487 104.486 53.653 104.814 53.0605 105.471C52.4681 106.127 52.1719 107.025 52.1719 108.164H48.8496C48.8496 106.952 49.123 105.863 49.6699 104.896C50.2259 103.921 51.0143 103.165 52.0352 102.627C53.0651 102.089 54.25 101.82 55.5898 101.82C57.5221 101.82 59.0443 102.308 60.1562 103.283C61.2773 104.249 61.8379 105.589 61.8379 107.303C61.8379 108.296 61.5553 109.34 60.9902 110.434C60.4342 111.518 59.5182 112.753 58.2422 114.139L53.375 119.348H62.6172V122ZM78.5312 122H65.1465V119.717L71.7773 112.484C72.7344 111.418 73.4134 110.529 73.8145 109.818C74.2246 109.098 74.4297 108.378 74.4297 107.658C74.4297 106.71 74.1608 105.945 73.623 105.361C73.0944 104.778 72.3789 104.486 71.4766 104.486C70.401 104.486 69.5671 104.814 68.9746 105.471C68.3822 106.127 68.0859 107.025 68.0859 108.164H64.7637C64.7637 106.952 65.0371 105.863 65.584 104.896C66.14 103.921 66.9284 103.165 67.9492 102.627C68.9792 102.089 70.1641 101.82 71.5039 101.82C73.4362 101.82 74.9583 102.308 76.0703 103.283C77.1914 104.249 77.752 105.589 77.752 107.303C77.752 108.296 77.4694 109.34 76.9043 110.434C76.3483 111.518 75.4323 112.753 74.1562 114.139L69.2891 119.348H78.5312V122ZM91.3691 107.207L91.4648 108.752C92.5039 107.54 93.9258 106.934 95.7305 106.934C97.7083 106.934 99.0618 107.69 99.791 109.203C100.867 107.69 102.38 106.934 104.33 106.934C105.962 106.934 107.174 107.385 107.967 108.287C108.769 109.189 109.179 110.52 109.197 112.279V122H105.875V112.375C105.875 111.436 105.67 110.748 105.26 110.311C104.85 109.873 104.171 109.654 103.223 109.654C102.466 109.654 101.846 109.859 101.363 110.27C100.889 110.671 100.557 111.199 100.365 111.855L100.379 122H97.0566V112.266C97.0111 110.525 96.1224 109.654 94.3906 109.654C93.0599 109.654 92.1165 110.197 91.5605 111.281V122H88.2383V107.207H91.3691ZM116.143 122H112.82V107.207H116.143V122ZM112.615 103.365C112.615 102.855 112.775 102.431 113.094 102.094C113.422 101.757 113.887 101.588 114.488 101.588C115.09 101.588 115.555 101.757 115.883 102.094C116.211 102.431 116.375 102.855 116.375 103.365C116.375 103.867 116.211 104.286 115.883 104.623C115.555 104.951 115.09 105.115 114.488 105.115C113.887 105.115 113.422 104.951 113.094 104.623C112.775 104.286 112.615 103.867 112.615 103.365ZM122.855 107.207L122.951 108.916C124.045 107.594 125.48 106.934 127.258 106.934C130.339 106.934 131.906 108.697 131.961 112.225V122H128.639V112.416C128.639 111.477 128.434 110.785 128.023 110.338C127.622 109.882 126.962 109.654 126.041 109.654C124.701 109.654 123.703 110.26 123.047 111.473V122H119.725V107.207H122.855ZM144.32 120.551C143.345 121.699 141.96 122.273 140.164 122.273C138.56 122.273 137.343 121.804 136.514 120.865C135.693 119.926 135.283 118.568 135.283 116.791V107.207H138.605V116.75C138.605 118.628 139.385 119.566 140.943 119.566C142.557 119.566 143.646 118.988 144.211 117.83V107.207H147.533V122H144.402L144.32 120.551ZM155.08 103.611V107.207H157.691V109.668H155.08V117.926C155.08 118.491 155.189 118.901 155.408 119.156C155.636 119.402 156.037 119.525 156.611 119.525C156.994 119.525 157.382 119.48 157.773 119.389V121.959C157.017 122.169 156.288 122.273 155.586 122.273C153.034 122.273 151.758 120.865 151.758 118.049V109.668H149.324V107.207H151.758V103.611H155.08ZM166.756 122.273C164.65 122.273 162.941 121.613 161.629 120.291C160.326 118.96 159.674 117.192 159.674 114.986V114.576C159.674 113.1 159.956 111.783 160.521 110.625C161.096 109.458 161.898 108.551 162.928 107.904C163.958 107.257 165.106 106.934 166.373 106.934C168.387 106.934 169.941 107.576 171.035 108.861C172.138 110.146 172.689 111.965 172.689 114.316V115.656H163.023C163.124 116.878 163.529 117.844 164.24 118.555C164.96 119.266 165.863 119.621 166.947 119.621C168.469 119.621 169.709 119.006 170.666 117.775L172.457 119.484C171.865 120.368 171.072 121.057 170.078 121.549C169.094 122.032 167.986 122.273 166.756 122.273ZM166.359 109.6C165.448 109.6 164.71 109.919 164.145 110.557C163.589 111.195 163.233 112.083 163.078 113.223H169.408V112.977C169.335 111.865 169.039 111.026 168.52 110.461C168 109.887 167.28 109.6 166.359 109.6ZM183.572 117.98C183.572 117.388 183.326 116.937 182.834 116.627C182.351 116.317 181.544 116.044 180.414 115.807C179.284 115.57 178.34 115.269 177.584 114.904C175.925 114.102 175.096 112.94 175.096 111.418C175.096 110.142 175.633 109.076 176.709 108.219C177.785 107.362 179.152 106.934 180.811 106.934C182.579 106.934 184.005 107.371 185.09 108.246C186.184 109.121 186.73 110.256 186.73 111.65H183.408C183.408 111.012 183.171 110.484 182.697 110.064C182.223 109.636 181.594 109.422 180.811 109.422C180.081 109.422 179.484 109.59 179.02 109.928C178.564 110.265 178.336 110.716 178.336 111.281C178.336 111.792 178.55 112.188 178.979 112.471C179.407 112.753 180.273 113.04 181.576 113.332C182.88 113.615 183.9 113.956 184.639 114.357C185.386 114.749 185.938 115.223 186.293 115.779C186.658 116.335 186.84 117.01 186.84 117.803C186.84 119.133 186.288 120.214 185.186 121.043C184.083 121.863 182.638 122.273 180.852 122.273C179.639 122.273 178.559 122.055 177.611 121.617C176.663 121.18 175.925 120.578 175.396 119.812C174.868 119.047 174.604 118.222 174.604 117.338H177.83C177.876 118.122 178.172 118.728 178.719 119.156C179.266 119.576 179.99 119.785 180.893 119.785C181.768 119.785 182.433 119.621 182.889 119.293C183.344 118.956 183.572 118.518 183.572 117.98Z" fill="black"/>
</svg>
