<svg width="50" height="50" viewBox="0 0 50 50" fill="none" xmlns="http://www.w3.org/2000/svg">
<g clip-path="url(#clip0)">
<path d="M42.4837 16.7083C42.4832 16.7083 42.4826 16.7083 42.4821 16.7083H0.715866C0.320966 16.7079 0.000410441 17.0276 -7.22066e-06 17.4225C-7.22066e-06 17.423 -7.22066e-06 17.4236 -7.22066e-06 17.4242V37.4719C-0.000424883 37.8668 0.319295 38.1874 0.714195 38.1878C0.714717 38.1878 0.715343 38.1878 0.715866 38.1878H29.1169C29.5122 38.1878 29.8328 37.8673 29.8328 37.4719C29.8328 37.0766 29.5122 36.7561 29.1169 36.7561H1.43174V18.14H41.7662V19.9301C41.7658 20.325 42.0855 20.6456 42.4804 20.646C42.4809 20.646 42.4815 20.646 42.4821 20.646C42.877 20.6464 43.1975 20.3267 43.1979 19.9318C43.1979 19.9313 43.1979 19.9307 43.1979 19.9301V17.4242C43.1984 17.0293 42.8786 16.7088 42.4837 16.7083Z" fill="black"/>
<path d="M37.6272 13.3845L4.21419 5.86662C4.02875 5.82517 3.83443 5.85879 3.67374 5.96018C3.51325 6.0624 3.39975 6.22393 3.35798 6.40958L1.68733 13.9275C1.60151 14.3136 1.845 14.6962 2.23113 14.782C2.61726 14.8679 2.99984 14.6244 3.08567 14.2382L4.60011 7.42116L37.3131 14.7812C37.3649 14.7932 37.4178 14.7992 37.471 14.7987C37.8663 14.798 38.1862 14.4769 38.1856 14.0816C38.1849 13.7474 37.9531 13.4582 37.6272 13.3845Z" fill="black"/>
<path d="M33.5701 9.24205L13.5224 0.888812C13.1739 0.74357 12.7725 0.89278 12.6035 1.23046L10.9329 4.57176C10.7442 4.92071 10.8741 5.35665 11.2231 5.54533C11.5721 5.73401 12.008 5.60411 12.1967 5.25505C12.2041 5.24137 12.2111 5.22738 12.2176 5.21318V5.21485L13.5884 2.47165L33.0172 10.5668C33.383 10.7194 33.8034 10.5467 33.9561 10.1809C34.1087 9.81519 33.936 9.39481 33.5701 9.24205Z" fill="black"/>
<path d="M34.0762 20.0496H27.4462C27.0509 20.0496 26.7303 20.3701 26.7303 20.7655C26.7303 21.1608 27.0509 21.4813 27.4462 21.4813H34.0762C34.4715 21.4813 34.792 21.1608 34.792 20.7655C34.792 20.3701 34.4715 20.0496 34.0762 20.0496Z" fill="black"/>
<path d="M20.7636 20.0972C16.7038 20.0972 13.4128 23.3882 13.4128 27.448C13.4169 31.506 16.7056 34.7947 20.7636 34.7989C24.8234 34.7989 28.1145 31.5078 28.1145 27.448C28.1145 23.3882 24.8234 20.0972 20.7636 20.0972ZM20.7636 33.4623C17.442 33.4623 14.7493 30.7697 14.7493 27.448C14.7529 24.1279 17.4435 21.4373 20.7636 21.4337C24.0853 21.4337 26.778 24.1263 26.778 27.448C26.778 30.7697 24.0853 33.4623 20.7636 33.4623Z" fill="black"/>
<path d="M40.8115 22.4361C36.3843 22.4361 31.6229 23.4819 31.6229 25.7773V45.8251C31.6229 48.1206 36.3843 49.1664 40.8115 49.1664C45.2387 49.1664 50.0001 48.1206 50.0001 45.8251V25.7773C50.0001 23.4819 45.2387 22.4361 40.8115 22.4361ZM48.3294 45.8126C48.2033 46.2762 45.6981 47.4958 40.8115 47.4958C35.9248 47.4958 33.4197 46.2762 33.2936 45.8251V44.512C35.0711 45.4075 38.0073 45.8251 40.8115 45.8251C43.6157 45.8251 46.5527 45.4033 48.3294 44.5112V45.8126ZM48.3294 42.4713C48.2033 42.9349 45.6981 44.1545 40.8115 44.1545C35.9248 44.1545 33.4197 42.9349 33.2936 42.4838V41.1707C35.0711 42.0662 38.0073 42.4838 40.8115 42.4838C43.6157 42.4838 46.5527 42.062 48.3294 41.1699V42.4713ZM48.3294 39.13C48.2033 39.5936 45.6981 40.8132 40.8115 40.8132C35.9248 40.8132 33.4197 39.5936 33.2936 39.1425V37.8294C35.0711 38.7249 38.0073 39.1425 40.8115 39.1425C43.6157 39.1425 46.5527 38.7207 48.3294 37.8286V39.13ZM48.3294 35.7887C48.2033 36.2523 45.6981 37.4719 40.8115 37.4719C35.9248 37.4719 33.4197 36.2523 33.2936 35.8012V34.4881C35.0711 35.3836 38.0073 35.8012 40.8115 35.8012C43.6157 35.8012 46.5527 35.3794 48.3294 34.4873V35.7887ZM48.3294 32.4474C48.2033 32.911 45.6981 34.1306 40.8115 34.1306C35.9248 34.1306 33.4197 32.911 33.2936 32.4599V31.1468C35.0711 32.0381 38.0073 32.4599 40.8115 32.4599C43.6157 32.4599 46.5527 32.0381 48.3294 31.146V32.4474ZM48.3294 29.1061C48.2033 29.5697 45.6981 30.7893 40.8115 30.7893C35.9248 30.7893 33.4197 29.5697 33.2936 29.1186V27.8055C35.0711 28.6968 38.0073 29.1186 40.8115 29.1186C43.6157 29.1186 46.5527 28.6968 48.3294 27.8047V29.1061ZM40.8115 27.448C35.9324 27.448 33.4281 26.2318 33.2936 25.7924V25.7874C33.4281 25.3221 35.9324 24.1067 40.8115 24.1067C45.6564 24.1067 48.1623 25.3046 48.3294 25.7773C48.1623 26.2501 45.6564 27.448 40.8115 27.448Z" fill="black"/>
<path d="M14.0809 33.4139H7.76672L4.77291 30.1394V24.7098L8.07913 21.4813H14.0809C14.4763 21.4813 14.7968 21.1608 14.7968 20.7654C14.7968 20.3701 14.4763 20.0496 14.0809 20.0496H7.78843C7.60132 20.0492 7.42141 20.122 7.28724 20.2526L3.55585 23.8921C3.41645 24.055 3.34002 24.2624 3.34033 24.4768V30.4176C3.34033 30.5963 3.40705 30.7684 3.52745 30.9004L6.92137 34.6126C7.057 34.7611 7.24892 34.8458 7.45013 34.8457H14.0809C14.4763 34.8457 14.7968 34.5251 14.7968 34.1298C14.7968 33.7345 14.4764 33.4139 14.0809 33.4139Z" fill="black"/>
<path d="M21.1814 26.6127H20.346C20.0863 26.6127 19.9284 26.4673 19.9284 26.4038C19.9284 26.3403 20.0863 26.195 20.346 26.195H22.4344C22.8957 26.195 23.2697 25.821 23.2697 25.3597C23.2697 24.8984 22.8957 24.5243 22.4344 24.5243H21.599C21.599 24.063 21.225 23.689 20.7637 23.689C20.3024 23.689 19.9284 24.063 19.9284 24.5243V24.5619C19.0019 24.6928 18.3 25.4649 18.2577 26.3996C18.3176 27.4949 19.2504 28.3363 20.346 28.2833H21.1814C21.4412 28.2833 21.599 28.4286 21.599 28.4921C21.599 28.5556 21.4412 28.701 21.1814 28.701H19.0931C18.6317 28.701 18.2577 29.075 18.2577 29.5363C18.2577 29.9976 18.6317 30.3716 19.0931 30.3716H19.9284C19.9284 30.8329 20.3024 31.2069 20.7637 31.2069C21.225 31.2069 21.599 30.8329 21.599 30.3716V30.334C22.5255 30.2032 23.2274 29.431 23.2697 28.4963C23.2098 27.4011 22.277 26.5596 21.1814 26.6127Z" fill="black"/>
</g>
<defs>
<clipPath id="clip0">
<rect width="50" height="50" fill="white"/>
</clipPath>
</defs>
</svg>
