<svg width="22" height="23" viewBox="0 0 22 23" fill="none" xmlns="http://www.w3.org/2000/svg">
<path d="M9.62499 8.04105V0.165039C6.9628 0.524824 4.52142 1.83785 2.75363 3.86063C0.985836 5.8834 0.0115967 8.47865 0.0115967 11.165C0.0115967 13.8514 0.985836 16.4467 2.75363 18.4695C4.52142 20.4922 6.9628 21.8053 9.62499 22.165V14.289C8.99514 14.0446 8.45388 13.6155 8.07223 13.058C7.69058 12.5005 7.48635 11.8407 7.48635 11.165C7.48635 10.4894 7.69058 9.82959 8.07223 9.27209C8.45388 8.7146 8.99514 8.28548 9.62499 8.04105ZM14.364 9.79004H22C21.7947 7.30598 20.7147 4.97532 18.9522 3.21283C17.1897 1.45034 14.8591 0.370356 12.375 0.165039V7.82205C12.8415 7.96377 13.2664 8.21702 13.613 8.55994C13.9596 8.90285 14.2173 9.32508 14.364 9.79004ZM12.375 14.508V22.165C14.8591 21.9597 17.1897 20.8797 18.9522 19.1172C20.7147 17.3548 21.7947 15.0241 22 12.54H14.364C14.2173 13.005 13.9596 13.4272 13.613 13.7701C13.2664 14.1131 12.8415 14.3663 12.375 14.508Z" fill="#D8DFE5"/>
</svg>
