<svg width="50" height="50" viewBox="0 0 50 50" fill="none" xmlns="http://www.w3.org/2000/svg">
<path fill-rule="evenodd" clip-rule="evenodd" d="M35.6674 8.18365V24.0678H43.6325V8.18365C43.6325 5.99652 41.8374 4.20111 39.6499 4.20111C37.4622 4.20111 35.6674 5.99615 35.6674 8.18365ZM16.0785 15.1164C15.5425 14.5804 15.5425 13.7109 16.0785 13.1748C16.615 12.6382 17.4844 12.6382 18.021 13.1748L18.7735 13.9275L21.2049 11.4964C19.5131 10.1878 17.1114 10.3438 15.6003 11.8546C13.9402 13.5149 13.9402 16.2065 15.6003 17.8669C17.2601 19.527 19.9521 19.527 21.612 17.8669C22.6473 16.832 23.094 15.3165 22.7359 13.8488L19.7447 16.8405C19.2081 17.3764 18.3387 17.3764 17.8026 16.8405L16.0785 15.1164ZM23.1564 9.54478L24.8806 7.82035C25.4167 7.28429 26.2863 7.28429 26.8226 7.82035C27.3584 8.35677 27.3584 9.22623 26.8226 9.76229L24.8617 11.7227C26.2207 14.4259 25.6767 17.6863 23.5541 19.8085C20.8211 22.5418 16.3914 22.5418 13.6581 19.8085C10.9256 17.076 10.9256 12.6458 13.6581 9.91285C16.2425 7.32849 20.3809 7.16692 23.1564 9.54478ZM10.0327 38.2587C9.27396 38.2587 8.65923 38.8736 8.65923 39.6321C8.65923 40.3904 9.27396 41.0053 10.0327 41.0053C10.791 41.0053 11.4061 40.3904 11.4061 39.6321C11.4061 38.8736 10.791 38.2587 10.0327 38.2587ZM15.5258 41.0053C14.7669 41.0053 14.1526 40.3904 14.1526 39.6321C14.1526 38.8736 14.7669 38.2587 15.5258 38.2587H28.801C29.5593 38.2587 30.1742 38.8736 30.1742 39.6321C30.1742 40.3904 29.5593 41.0053 28.801 41.0053H15.5258ZM10.0327 32.7657C9.27396 32.7657 8.65923 33.3802 8.65923 34.1389C8.65923 34.8973 9.27396 35.5122 10.0327 35.5122C10.791 35.5122 11.4061 34.8973 11.4061 34.1389C11.4061 33.3802 10.791 32.7657 10.0327 32.7657ZM15.5258 35.5122C14.7669 35.5122 14.1526 34.8973 14.1526 34.1389C14.1526 33.3802 14.7669 32.7657 15.5258 32.7657H28.801C29.5593 32.7657 30.1742 33.3802 30.1742 34.1389C30.1742 34.8973 29.5593 35.5122 28.801 35.5122H15.5258ZM35.6674 26.8144V46.9562C35.6674 47.7147 35.0526 48.3294 34.2941 48.3294H4.53951C3.78064 48.3294 3.16628 47.7147 3.16628 46.9562V8.04629C3.16628 4.41403 6.1253 1.45444 9.75812 1.45444H39.6499C43.3537 1.45444 46.3791 4.48005 46.3791 8.18365V25.441C46.3791 26.1995 45.7642 26.8144 45.0057 26.8144H35.6674ZM34.2329 4.20111C33.4093 5.31741 32.9209 6.69597 32.9209 8.18365V45.583H5.91275V8.04629C5.91275 5.93031 7.64177 4.20111 9.75812 4.20111H34.2329ZM10.0327 27.2724C9.27396 27.2724 8.65923 27.8873 8.65923 28.6456C8.65923 29.4041 9.27396 30.019 10.0327 30.019C10.791 30.019 11.4061 29.4041 11.4061 28.6456C11.4061 27.8873 10.791 27.2724 10.0327 27.2724ZM15.5258 30.019H28.801C29.5593 30.019 30.1742 29.4041 30.1742 28.6456C30.1742 27.8873 29.5593 27.2724 28.801 27.2724H15.5258C14.7669 27.2724 14.1526 27.8873 14.1526 28.6456C14.1526 29.4041 14.7669 30.019 15.5258 30.019Z" fill="black"/>
</svg>
