<svg width="276" height="205" viewBox="0 0 276 205" fill="none" xmlns="http://www.w3.org/2000/svg">
<path d="M240.819 68.21C241.971 67.214 242.877 66.398 243.537 65.762C244.209 65.114 244.767 64.442 245.211 63.746C245.655 63.05 245.877 62.354 245.877 61.658C245.877 60.938 245.703 60.374 245.355 59.966C245.019 59.558 244.485 59.354 243.753 59.354C243.045 59.354 242.493 59.582 242.097 60.038C241.713 60.482 241.509 61.082 241.485 61.838H239.505C239.541 60.47 239.949 59.426 240.729 58.706C241.521 57.974 242.523 57.608 243.735 57.608C245.043 57.608 246.063 57.968 246.795 58.688C247.539 59.408 247.911 60.368 247.911 61.568C247.911 62.432 247.689 63.266 247.245 64.07C246.813 64.862 246.291 65.576 245.679 66.212C245.079 66.836 244.311 67.562 243.375 68.39L242.565 69.11H248.271V70.82H239.523V69.326L240.819 68.21ZM250.074 64.268C250.074 62.192 250.422 60.572 251.118 59.408C251.826 58.232 253.038 57.644 254.754 57.644C256.47 57.644 257.676 58.232 258.372 59.408C259.08 60.572 259.434 62.192 259.434 64.268C259.434 66.368 259.08 68.012 258.372 69.2C257.676 70.376 256.47 70.964 254.754 70.964C253.038 70.964 251.826 70.376 251.118 69.2C250.422 68.012 250.074 66.368 250.074 64.268ZM257.418 64.268C257.418 63.296 257.352 62.474 257.22 61.802C257.1 61.13 256.848 60.584 256.464 60.164C256.08 59.732 255.51 59.516 254.754 59.516C253.998 59.516 253.428 59.732 253.044 60.164C252.66 60.584 252.402 61.13 252.27 61.802C252.15 62.474 252.09 63.296 252.09 64.268C252.09 65.276 252.15 66.122 252.27 66.806C252.39 67.49 252.642 68.042 253.026 68.462C253.422 68.882 253.998 69.092 254.754 69.092C255.51 69.092 256.08 68.882 256.464 68.462C256.86 68.042 257.118 67.49 257.238 66.806C257.358 66.122 257.418 65.276 257.418 64.268ZM261.281 61.046C261.281 60.17 261.533 59.486 262.037 58.994C262.553 58.49 263.213 58.238 264.017 58.238C264.821 58.238 265.475 58.49 265.979 58.994C266.495 59.486 266.753 60.17 266.753 61.046C266.753 61.922 266.495 62.612 265.979 63.116C265.475 63.62 264.821 63.872 264.017 63.872C263.213 63.872 262.553 63.62 262.037 63.116C261.533 62.612 261.281 61.922 261.281 61.046ZM272.261 58.472L265.079 71H263.063L270.245 58.472H272.261ZM264.017 59.48C263.261 59.48 262.883 60.002 262.883 61.046C262.883 62.102 263.261 62.63 264.017 62.63C264.377 62.63 264.653 62.504 264.845 62.252C265.049 61.988 265.151 61.586 265.151 61.046C265.151 60.002 264.773 59.48 264.017 59.48ZM268.607 68.408C268.607 67.532 268.859 66.848 269.363 66.356C269.879 65.852 270.539 65.6 271.343 65.6C272.135 65.6 272.783 65.852 273.287 66.356C273.803 66.848 274.061 67.532 274.061 68.408C274.061 69.284 273.803 69.974 273.287 70.478C272.783 70.982 272.135 71.234 271.343 71.234C270.539 71.234 269.879 70.982 269.363 70.478C268.859 69.974 268.607 69.284 268.607 68.408ZM271.325 66.842C270.569 66.842 270.191 67.364 270.191 68.408C270.191 69.452 270.569 69.974 271.325 69.974C272.081 69.974 272.459 69.452 272.459 68.408C272.459 67.364 272.081 66.842 271.325 66.842Z" fill="black"/>
<circle cx="222.605" cy="65" r="7" fill="#FF7D84"/>
<path d="M239.415 88.75V86.878H243.159V100H241.089V88.75H239.415ZM254.438 88.642H248.408V92.224C248.66 91.888 249.032 91.606 249.524 91.378C250.028 91.15 250.562 91.036 251.126 91.036C252.134 91.036 252.95 91.252 253.574 91.684C254.21 92.116 254.66 92.662 254.924 93.322C255.2 93.982 255.338 94.678 255.338 95.41C255.338 96.298 255.164 97.09 254.816 97.786C254.48 98.47 253.97 99.01 253.286 99.406C252.614 99.802 251.786 100 250.802 100C249.494 100 248.444 99.676 247.652 99.028C246.86 98.38 246.386 97.522 246.23 96.454H248.228C248.36 97.018 248.654 97.468 249.11 97.804C249.566 98.128 250.136 98.29 250.82 98.29C251.672 98.29 252.308 98.032 252.728 97.516C253.16 97 253.376 96.316 253.376 95.464C253.376 94.6 253.16 93.94 252.728 93.484C252.296 93.016 251.66 92.782 250.82 92.782C250.232 92.782 249.734 92.932 249.326 93.232C248.93 93.52 248.642 93.916 248.462 94.42H246.518V86.842H254.438V88.642ZM257.15 90.046C257.15 89.17 257.402 88.486 257.906 87.994C258.422 87.49 259.082 87.238 259.886 87.238C260.69 87.238 261.344 87.49 261.848 87.994C262.364 88.486 262.622 89.17 262.622 90.046C262.622 90.922 262.364 91.612 261.848 92.116C261.344 92.62 260.69 92.872 259.886 92.872C259.082 92.872 258.422 92.62 257.906 92.116C257.402 91.612 257.15 90.922 257.15 90.046ZM268.13 87.472L260.948 100H258.932L266.114 87.472H268.13ZM259.886 88.48C259.13 88.48 258.752 89.002 258.752 90.046C258.752 91.102 259.13 91.63 259.886 91.63C260.246 91.63 260.522 91.504 260.714 91.252C260.918 90.988 261.02 90.586 261.02 90.046C261.02 89.002 260.642 88.48 259.886 88.48ZM264.476 97.408C264.476 96.532 264.728 95.848 265.232 95.356C265.748 94.852 266.408 94.6 267.212 94.6C268.004 94.6 268.652 94.852 269.156 95.356C269.672 95.848 269.93 96.532 269.93 97.408C269.93 98.284 269.672 98.974 269.156 99.478C268.652 99.982 268.004 100.234 267.212 100.234C266.408 100.234 265.748 99.982 265.232 99.478C264.728 98.974 264.476 98.284 264.476 97.408ZM267.194 95.842C266.438 95.842 266.06 96.364 266.06 97.408C266.06 98.452 266.438 98.974 267.194 98.974C267.95 98.974 268.328 98.452 268.328 97.408C268.328 96.364 267.95 95.842 267.194 95.842Z" fill="black"/>
<circle cx="222.605" cy="94" r="7" fill="#FABC7B"/>
<path d="M239.415 117.75V115.878H243.159V129H241.089V117.75H239.415ZM245.978 122.268C245.978 120.192 246.326 118.572 247.022 117.408C247.73 116.232 248.942 115.644 250.658 115.644C252.374 115.644 253.58 116.232 254.276 117.408C254.984 118.572 255.338 120.192 255.338 122.268C255.338 124.368 254.984 126.012 254.276 127.2C253.58 128.376 252.374 128.964 250.658 128.964C248.942 128.964 247.73 128.376 247.022 127.2C246.326 126.012 245.978 124.368 245.978 122.268ZM253.322 122.268C253.322 121.296 253.256 120.474 253.124 119.802C253.004 119.13 252.752 118.584 252.368 118.164C251.984 117.732 251.414 117.516 250.658 117.516C249.902 117.516 249.332 117.732 248.948 118.164C248.564 118.584 248.306 119.13 248.174 119.802C248.054 120.474 247.994 121.296 247.994 122.268C247.994 123.276 248.054 124.122 248.174 124.806C248.294 125.49 248.546 126.042 248.93 126.462C249.326 126.882 249.902 127.092 250.658 127.092C251.414 127.092 251.984 126.882 252.368 126.462C252.764 126.042 253.022 125.49 253.142 124.806C253.262 124.122 253.322 123.276 253.322 122.268ZM257.185 119.046C257.185 118.17 257.437 117.486 257.941 116.994C258.457 116.49 259.117 116.238 259.921 116.238C260.725 116.238 261.379 116.49 261.883 116.994C262.399 117.486 262.657 118.17 262.657 119.046C262.657 119.922 262.399 120.612 261.883 121.116C261.379 121.62 260.725 121.872 259.921 121.872C259.117 121.872 258.457 121.62 257.941 121.116C257.437 120.612 257.185 119.922 257.185 119.046ZM268.165 116.472L260.983 129H258.967L266.149 116.472H268.165ZM259.921 117.48C259.165 117.48 258.787 118.002 258.787 119.046C258.787 120.102 259.165 120.63 259.921 120.63C260.281 120.63 260.557 120.504 260.749 120.252C260.953 119.988 261.055 119.586 261.055 119.046C261.055 118.002 260.677 117.48 259.921 117.48ZM264.511 126.408C264.511 125.532 264.763 124.848 265.267 124.356C265.783 123.852 266.443 123.6 267.247 123.6C268.039 123.6 268.687 123.852 269.191 124.356C269.707 124.848 269.965 125.532 269.965 126.408C269.965 127.284 269.707 127.974 269.191 128.478C268.687 128.982 268.039 129.234 267.247 129.234C266.443 129.234 265.783 128.982 265.267 128.478C264.763 127.974 264.511 127.284 264.511 126.408ZM267.229 124.842C266.473 124.842 266.095 125.364 266.095 126.408C266.095 127.452 266.473 127.974 267.229 127.974C267.985 127.974 268.363 127.452 268.363 126.408C268.363 125.364 267.985 124.842 267.229 124.842Z" fill="black"/>
<circle cx="222.605" cy="123" r="7" fill="#73E24D"/>
<path d="M248.145 146.642H242.115V150.224C242.367 149.888 242.739 149.606 243.231 149.378C243.735 149.15 244.269 149.036 244.833 149.036C245.841 149.036 246.657 149.252 247.281 149.684C247.917 150.116 248.367 150.662 248.631 151.322C248.907 151.982 249.045 152.678 249.045 153.41C249.045 154.298 248.871 155.09 248.523 155.786C248.187 156.47 247.677 157.01 246.993 157.406C246.321 157.802 245.493 158 244.509 158C243.201 158 242.151 157.676 241.359 157.028C240.567 156.38 240.093 155.522 239.937 154.454H241.935C242.067 155.018 242.361 155.468 242.817 155.804C243.273 156.128 243.843 156.29 244.527 156.29C245.379 156.29 246.015 156.032 246.435 155.516C246.867 155 247.083 154.316 247.083 153.464C247.083 152.6 246.867 151.94 246.435 151.484C246.003 151.016 245.367 150.782 244.527 150.782C243.939 150.782 243.441 150.932 243.033 151.232C242.637 151.52 242.349 151.916 242.169 152.42H240.225V144.842H248.145V146.642ZM250.857 148.046C250.857 147.17 251.109 146.486 251.613 145.994C252.129 145.49 252.789 145.238 253.593 145.238C254.397 145.238 255.051 145.49 255.555 145.994C256.071 146.486 256.329 147.17 256.329 148.046C256.329 148.922 256.071 149.612 255.555 150.116C255.051 150.62 254.397 150.872 253.593 150.872C252.789 150.872 252.129 150.62 251.613 150.116C251.109 149.612 250.857 148.922 250.857 148.046ZM261.837 145.472L254.655 158H252.639L259.821 145.472H261.837ZM253.593 146.48C252.837 146.48 252.459 147.002 252.459 148.046C252.459 149.102 252.837 149.63 253.593 149.63C253.953 149.63 254.229 149.504 254.421 149.252C254.625 148.988 254.727 148.586 254.727 148.046C254.727 147.002 254.349 146.48 253.593 146.48ZM258.183 155.408C258.183 154.532 258.435 153.848 258.939 153.356C259.455 152.852 260.115 152.6 260.919 152.6C261.711 152.6 262.359 152.852 262.863 153.356C263.379 153.848 263.637 154.532 263.637 155.408C263.637 156.284 263.379 156.974 262.863 157.478C262.359 157.982 261.711 158.234 260.919 158.234C260.115 158.234 259.455 157.982 258.939 157.478C258.435 156.974 258.183 156.284 258.183 155.408ZM260.901 153.842C260.145 153.842 259.767 154.364 259.767 155.408C259.767 156.452 260.145 156.974 260.901 156.974C261.657 156.974 262.035 156.452 262.035 155.408C262.035 154.364 261.657 153.842 260.901 153.842Z" fill="black"/>
<circle cx="222.605" cy="152" r="7" fill="#5A95F2"/>
<circle cx="102.441" cy="102.441" r="48.0619" transform="rotate(-144.338 102.441 102.441)" stroke="#FABC7B" stroke-width="41"/>
<mask id="mask0" mask-type="alpha" maskUnits="userSpaceOnUse" x="6" y="6" width="193" height="193">
<circle cx="102.441" cy="102.441" r="48.0619" transform="rotate(-144.338 102.441 102.441)" stroke="black" stroke-width="41"/>
</mask>
<g mask="url(#mask0)">
<path d="M101.774 2.10414L102.442 102.441L163.066 17.9566L157.805 14.1814L134.803 3.7701L117.269 3.37768L101.774 2.10414Z" fill="#5A95F2"/>
<path d="M102.442 102.441L101.774 2.10414L117.269 3.37769L134.803 3.7701L157.805 14.1814L163.066 17.9566L101.553 103.679" stroke="white" stroke-width="3"/>
</g>
<mask id="mask1" mask-type="alpha" maskUnits="userSpaceOnUse" x="6" y="6" width="193" height="193">
<circle cx="102.441" cy="102.441" r="48.0619" transform="rotate(-144.338 102.441 102.441)" stroke="black" stroke-width="41"/>
</mask>
<g mask="url(#mask1)">
<path d="M37.288 192.584L102.132 102.219L101.902 4.53971L52.9255 -34.3551L-3.93987 11.5709L-25.8256 57.7503L-28.659 118.539L8.07763 165.997L37.288 192.584Z" fill="#FF7D84" stroke="white" stroke-width="3"/>
</g>
<mask id="mask2" mask-type="alpha" maskUnits="userSpaceOnUse" x="6" y="6" width="193" height="193">
<circle cx="102.441" cy="102.441" r="48.0619" transform="rotate(-144.338 102.441 102.441)" stroke="black" stroke-width="41"/>
</mask>
<g mask="url(#mask2)">
<path d="M146.411 41.1667L102.442 102.441L171.16 123.623L181.619 99.2485L180.653 75.1145L167.334 50.555L146.411 41.1667Z" fill="#73E24D" stroke="white" stroke-width="3"/>
</g>
</svg>
