<svg width="348" height="172" viewBox="0 0 348 172" fill="none" xmlns="http://www.w3.org/2000/svg">
<path d="M32.9617 78.3445C28.8002 77.7636 25.8508 73.8993 26.946 69.8426C29.3189 61.0538 33.6426 52.8761 39.6333 45.936C45.624 38.9959 53.0825 33.5242 61.4305 29.8931C65.2837 28.2171 69.5373 30.5705 70.7198 34.6026C71.9023 38.6346 69.5519 42.8065 65.7719 44.6415C60.2086 47.3423 55.2274 51.1576 51.1519 55.8789C47.0764 60.6002 44.0296 66.0853 42.1703 71.9834C40.9071 75.9909 37.1233 78.9254 32.9617 78.3445Z" fill="#73E24D"/>
<path d="M51.6953 44.7259C49.0118 41.4925 49.4363 36.6499 52.979 34.3904C59.5713 30.1861 66.933 27.2781 74.6688 25.8514C82.4047 24.4248 90.3194 24.5154 97.9778 26.0916C102.093 26.9387 104.217 31.3113 102.864 35.2892C101.51 39.2671 97.1871 41.326 93.0398 40.6511C87.8837 39.8121 82.6028 39.8612 77.4286 40.8155C72.2543 41.7697 67.3033 43.6076 62.7857 46.2307C59.1519 48.3406 54.3788 47.9593 51.6953 44.7259Z" fill="#5A95F2"/>
<path d="M98.1238 137.498C99.1034 141.584 96.5837 145.741 92.4073 146.204C83.1929 147.224 73.8316 146.129 65.0483 142.96C53.8701 138.926 44.1172 131.709 36.9928 122.197C29.8684 112.686 25.6842 101.297 24.9564 89.4353C24.3845 80.1152 25.9663 70.8238 29.5365 62.2681C31.1547 58.3903 35.8527 57.1412 39.4985 59.2302C43.1443 61.3193 44.3388 65.9563 42.8836 69.8981C40.6986 75.8168 39.7545 82.1512 40.1442 88.5034C40.6901 97.3995 43.8282 105.941 49.1715 113.075C54.5148 120.208 61.8295 125.622 70.2132 128.647C76.1995 130.807 82.5438 131.682 88.8381 131.25C93.0301 130.961 97.1442 133.412 98.1238 137.498Z" fill="#FABC7B"/>
<path d="M74.8387 33.7799C73.9857 29.6874 76.6146 25.628 80.7814 25.2918C87.5049 24.7495 94.29 25.333 100.854 27.0354C109.867 29.3732 118.219 33.7581 125.262 39.8492C132.305 45.9402 137.848 53.5734 141.461 62.1553C145.073 70.7373 146.658 80.0367 146.093 89.3309C145.527 98.625 142.825 107.663 138.197 115.744C133.57 123.824 127.141 130.728 119.412 135.919C111.682 141.111 102.859 144.45 93.6287 145.677C86.9071 146.57 80.1013 146.326 73.4933 144.972C69.398 144.132 67.2812 139.784 68.6244 135.825C69.9677 131.867 74.267 129.815 78.3937 130.482C82.761 131.189 87.2217 131.256 91.6341 130.67C98.5567 129.75 105.174 127.246 110.971 123.352C116.769 119.458 121.59 114.28 125.061 108.22C128.531 102.16 130.557 95.3813 130.982 88.4107C131.406 81.4401 130.218 74.4655 127.508 68.029C124.799 61.5926 120.641 55.8677 115.359 51.2994C110.077 46.7311 103.813 43.4425 97.0527 41.6891C92.7441 40.5716 88.3082 40.0969 83.8874 40.2686C79.7102 40.4309 75.6917 37.8723 74.8387 33.7799Z" fill="#FF7D84"/>
<path d="M257.35 49H259.402V40.432L263.236 49H264.658L268.474 40.432V49H270.526V36.49H268.33L263.956 46.3L259.564 36.49H257.35V49ZM275.347 47.812C275.347 47.074 274.771 46.498 274.051 46.498C273.313 46.498 272.737 47.074 272.737 47.812C272.737 48.55 273.313 49.126 274.051 49.126C274.771 49.126 275.347 48.55 275.347 47.812ZM277.565 36.49V49H283.847V47.344H279.617V36.49H277.565ZM287.687 47.812C287.687 47.074 287.111 46.498 286.391 46.498C285.653 46.498 285.077 47.074 285.077 47.812C285.077 48.55 285.653 49.126 286.391 49.126C287.111 49.126 287.687 48.55 287.687 47.812Z" fill="black"/>
<circle cx="240" cy="43" r="7" fill="#FF7D84"/>
<path d="M257.35 78H259.402V72.528H263.542V70.854H259.402V67.164H264.712V65.49H257.35V78ZM266.614 78H268.666V68.082H266.614V78ZM267.658 66.768C268.378 66.768 268.954 66.192 268.954 65.454C268.954 64.716 268.378 64.14 267.658 64.14C266.92 64.14 266.344 64.716 266.344 65.454C266.344 66.192 266.92 66.768 267.658 66.768ZM278.398 78H280.432V72.15C280.432 69.378 278.686 67.92 276.364 67.92C275.176 67.92 274.078 68.406 273.412 69.216V68.082H271.36V78H273.412V72.456C273.412 70.638 274.402 69.702 275.914 69.702C277.408 69.702 278.398 70.638 278.398 72.456V78ZM282.365 72.996C282.365 76.056 284.435 78.162 287.009 78.162C288.665 78.162 289.853 77.37 290.483 76.524V78H292.553V68.082H290.483V69.522C289.871 68.712 288.719 67.92 287.045 67.92C284.435 67.92 282.365 69.936 282.365 72.996ZM290.483 73.032C290.483 75.174 289.025 76.38 287.477 76.38C285.947 76.38 284.471 75.138 284.471 72.996C284.471 70.854 285.947 69.702 287.477 69.702C289.025 69.702 290.483 70.908 290.483 73.032ZM302.286 78H304.32V72.15C304.32 69.378 302.574 67.92 300.252 67.92C299.064 67.92 297.966 68.406 297.3 69.216V68.082H295.248V78H297.3V72.456C297.3 70.638 298.29 69.702 299.802 69.702C301.296 69.702 302.286 70.638 302.286 72.456V78ZM306.254 73.032C306.254 76.146 308.27 78.162 311.114 78.162C313.544 78.162 315.128 76.812 315.686 74.868H313.472C313.094 75.894 312.338 76.434 311.114 76.434C309.458 76.434 308.36 75.21 308.36 73.032C308.36 70.872 309.458 69.648 311.114 69.648C312.338 69.648 313.13 70.26 313.472 71.214H315.686C315.128 69.126 313.544 67.92 311.114 67.92C308.27 67.92 306.254 69.936 306.254 73.032ZM321.907 69.648C323.437 69.648 324.643 70.62 324.679 72.15H319.189C319.405 70.584 320.521 69.648 321.907 69.648ZM326.551 75.048H324.337C323.959 75.822 323.257 76.434 321.997 76.434C320.485 76.434 319.315 75.444 319.171 73.806H326.749C326.803 73.464 326.821 73.14 326.821 72.798C326.821 69.882 324.823 67.92 321.997 67.92C319.063 67.92 317.047 69.918 317.047 73.032C317.047 76.146 319.153 78.162 321.997 78.162C324.427 78.162 325.993 76.776 326.551 75.048Z" fill="black"/>
<circle cx="240" cy="72" r="7" fill="#FABC7B"/>
<path d="M261.436 94.49H257.35V107H261.436C265.45 107 268.078 104.642 268.078 100.79C268.078 96.92 265.45 94.49 261.436 94.49ZM259.402 105.326V96.164H261.436C264.388 96.164 265.972 97.928 265.972 100.79C265.972 103.634 264.388 105.326 261.436 105.326H259.402ZM274.288 98.648C275.818 98.648 277.024 99.62 277.06 101.15H271.57C271.786 99.584 272.902 98.648 274.288 98.648ZM278.932 104.048H276.718C276.34 104.822 275.638 105.434 274.378 105.434C272.866 105.434 271.696 104.444 271.552 102.806H279.13C279.184 102.464 279.202 102.14 279.202 101.798C279.202 98.882 277.204 96.92 274.378 96.92C271.444 96.92 269.428 98.918 269.428 102.032C269.428 105.146 271.534 107.162 274.378 107.162C276.808 107.162 278.374 105.776 278.932 104.048ZM288.619 104.228C288.511 100.646 282.913 101.762 282.913 99.764C282.913 99.098 283.489 98.648 284.587 98.648C285.703 98.648 286.369 99.242 286.441 100.106H288.493C288.385 98.126 286.909 96.92 284.659 96.92C282.319 96.92 280.843 98.198 280.843 99.782C280.843 103.418 286.603 102.302 286.603 104.246C286.603 104.93 285.973 105.434 284.785 105.434C283.651 105.434 282.877 104.768 282.805 103.958H280.681C280.771 105.758 282.445 107.162 284.821 107.162C287.161 107.162 288.619 105.902 288.619 104.228ZM290.836 107H292.888V97.082H290.836V107ZM291.88 95.768C292.6 95.768 293.176 95.192 293.176 94.454C293.176 93.716 292.6 93.14 291.88 93.14C291.142 93.14 290.566 93.716 290.566 94.454C290.566 95.192 291.142 95.768 291.88 95.768ZM294.898 101.996C294.898 105.056 296.968 107.162 299.578 107.162C301.198 107.162 302.386 106.352 303.016 105.506V107.162C303.016 109.142 301.828 110.114 300.244 110.114C298.822 110.114 297.724 109.412 297.418 108.386H295.384C295.636 110.582 297.598 111.896 300.244 111.896C303.34 111.896 305.086 109.862 305.086 107.162V97.082H303.016V98.522C302.404 97.676 301.198 96.92 299.578 96.92C296.968 96.92 294.898 98.936 294.898 101.996ZM303.016 102.032C303.016 104.174 301.558 105.38 300.01 105.38C298.48 105.38 297.004 104.138 297.004 101.996C297.004 99.854 298.48 98.702 300.01 98.702C301.558 98.702 303.016 99.908 303.016 102.032ZM314.82 107H316.854V101.15C316.854 98.378 315.108 96.92 312.786 96.92C311.598 96.92 310.5 97.406 309.834 98.216V97.082H307.782V107H309.834V101.456C309.834 99.638 310.824 98.702 312.336 98.702C313.83 98.702 314.82 99.638 314.82 101.456V107Z" fill="black"/>
<circle cx="240" cy="101" r="7" fill="#73E24D"/>
<path d="M257.35 136H259.402V127.432L263.236 136H264.658L268.474 127.432V136H270.526V123.49H268.33L263.956 133.3L259.564 123.49H257.35V136ZM272.539 130.996C272.539 134.056 274.609 136.162 277.183 136.162C278.839 136.162 280.027 135.37 280.657 134.524V136H282.727V126.082H280.657V127.522C280.045 126.712 278.893 125.92 277.219 125.92C274.609 125.92 272.539 127.936 272.539 130.996ZM280.657 131.032C280.657 133.174 279.199 134.38 277.651 134.38C276.121 134.38 274.645 133.138 274.645 130.996C274.645 128.854 276.121 127.702 277.651 127.702C279.199 127.702 280.657 128.908 280.657 131.032ZM287.474 130.78C287.474 128.674 288.41 128.044 289.922 128.044H290.444V125.92C289.04 125.92 288.05 126.532 287.474 127.522V126.082H285.422V136H287.474V130.78ZM292.33 136H294.382V131.734L298.054 136H300.826L296.254 131.05L300.826 126.082H297.982L294.382 130.42V122.68H292.33V136ZM306.473 127.648C308.003 127.648 309.209 128.62 309.245 130.15H303.755C303.971 128.584 305.087 127.648 306.473 127.648ZM311.117 133.048H308.903C308.525 133.822 307.823 134.434 306.563 134.434C305.051 134.434 303.881 133.444 303.737 131.806H311.315C311.369 131.464 311.387 131.14 311.387 130.798C311.387 127.882 309.389 125.92 306.563 125.92C303.629 125.92 301.613 127.918 301.613 131.032C301.613 134.146 303.719 136.162 306.563 136.162C308.993 136.162 310.559 134.776 311.117 133.048ZM313.731 133.246C313.731 135.262 314.829 136 316.593 136H318.213V134.29H316.953C316.089 134.29 315.801 133.984 315.801 133.246V127.756H318.213V126.082H315.801V123.616H313.731V126.082H312.561V127.756H313.731V133.246ZM320.104 136H322.156V126.082H320.104V136ZM321.148 124.768C321.868 124.768 322.444 124.192 322.444 123.454C322.444 122.716 321.868 122.14 321.148 122.14C320.41 122.14 319.834 122.716 319.834 123.454C319.834 124.192 320.41 124.768 321.148 124.768ZM331.888 136H333.922V130.15C333.922 127.378 332.176 125.92 329.854 125.92C328.666 125.92 327.568 126.406 326.902 127.216V126.082H324.85V136H326.902V130.456C326.902 128.638 327.892 127.702 329.404 127.702C330.898 127.702 331.888 128.638 331.888 130.456V136ZM335.855 130.996C335.855 134.056 337.925 136.162 340.535 136.162C342.155 136.162 343.343 135.352 343.973 134.506V136.162C343.973 138.142 342.785 139.114 341.201 139.114C339.779 139.114 338.681 138.412 338.375 137.386H336.341C336.593 139.582 338.555 140.896 341.201 140.896C344.297 140.896 346.043 138.862 346.043 136.162V126.082H343.973V127.522C343.361 126.676 342.155 125.92 340.535 125.92C337.925 125.92 335.855 127.936 335.855 130.996ZM343.973 131.032C343.973 133.174 342.515 134.38 340.967 134.38C339.437 134.38 337.961 133.138 337.961 130.996C337.961 128.854 339.437 127.702 340.967 127.702C342.515 127.702 343.973 128.908 343.973 131.032Z" fill="black"/>
<circle cx="240" cy="130" r="7" fill="#5A95F2"/>
</svg>
