<svg width="330" height="132" viewBox="0 0 330 132" fill="none" xmlns="http://www.w3.org/2000/svg">
<path d="M4.18359 4.20312L7.875 14.0117L11.5576 4.20312H14.4316V17H12.2168V12.7812L12.4365 7.13867L8.65723 17H7.06641L3.2959 7.14746L3.51562 12.7812V17H1.30078V4.20312H4.18359ZM16.4619 12.1572C16.4619 11.2256 16.6465 10.3877 17.0156 9.64355C17.3848 8.89355 17.9033 8.31934 18.5713 7.9209C19.2393 7.5166 20.0068 7.31445 20.874 7.31445C22.1572 7.31445 23.1973 7.72754 23.9941 8.55371C24.7969 9.37988 25.2305 10.4756 25.2949 11.8408L25.3037 12.3418C25.3037 13.2793 25.1221 14.1172 24.7588 14.8555C24.4014 15.5938 23.8857 16.165 23.2119 16.5693C22.5439 16.9736 21.7705 17.1758 20.8916 17.1758C19.5498 17.1758 18.4746 16.7305 17.666 15.8398C16.8633 14.9434 16.4619 13.751 16.4619 12.2627V12.1572ZM18.5977 12.3418C18.5977 13.3203 18.7998 14.0879 19.2041 14.6445C19.6084 15.1953 20.1709 15.4707 20.8916 15.4707C21.6123 15.4707 22.1719 15.1895 22.5703 14.627C22.9746 14.0645 23.1768 13.2412 23.1768 12.1572C23.1768 11.1963 22.9688 10.4346 22.5527 9.87207C22.1426 9.30957 21.583 9.02832 20.874 9.02832C20.1768 9.02832 19.623 9.30664 19.2129 9.86328C18.8027 10.4141 18.5977 11.2402 18.5977 12.3418ZM32.4404 14.416C32.4404 14.0352 32.2822 13.7451 31.9658 13.5459C31.6553 13.3467 31.1367 13.1709 30.4102 13.0186C29.6836 12.8662 29.0771 12.6729 28.5908 12.4385C27.5244 11.9229 26.9912 11.1758 26.9912 10.1973C26.9912 9.37695 27.3369 8.69141 28.0283 8.14062C28.7197 7.58984 29.5986 7.31445 30.665 7.31445C31.8018 7.31445 32.7188 7.5957 33.416 8.1582C34.1191 8.7207 34.4707 9.4502 34.4707 10.3467H32.335C32.335 9.93652 32.1826 9.59668 31.8779 9.32715C31.5732 9.05176 31.1689 8.91406 30.665 8.91406C30.1963 8.91406 29.8125 9.02246 29.5137 9.23926C29.2207 9.45605 29.0742 9.74609 29.0742 10.1094C29.0742 10.4375 29.2119 10.6924 29.4873 10.874C29.7627 11.0557 30.3193 11.2402 31.1572 11.4277C31.9951 11.6094 32.6514 11.8291 33.126 12.0869C33.6064 12.3389 33.9609 12.6436 34.1895 13.001C34.4238 13.3584 34.541 13.792 34.541 14.3018C34.541 15.1572 34.1865 15.8516 33.4775 16.3848C32.7686 16.9121 31.8398 17.1758 30.6914 17.1758C29.9121 17.1758 29.2178 17.0352 28.6084 16.7539C27.999 16.4727 27.5244 16.0859 27.1846 15.5938C26.8447 15.1016 26.6748 14.5713 26.6748 14.0029H28.749C28.7783 14.5068 28.9688 14.8965 29.3203 15.1719C29.6719 15.4414 30.1377 15.5762 30.7178 15.5762C31.2803 15.5762 31.708 15.4707 32.001 15.2598C32.2939 15.043 32.4404 14.7617 32.4404 14.416ZM39.085 5.17871V7.49023H40.7637V9.07227H39.085V14.3809C39.085 14.7441 39.1553 15.0078 39.2959 15.1719C39.4424 15.3301 39.7002 15.4092 40.0693 15.4092C40.3154 15.4092 40.5645 15.3799 40.8164 15.3213V16.9736C40.3301 17.1084 39.8613 17.1758 39.4102 17.1758C37.7695 17.1758 36.9492 16.2705 36.9492 14.46V9.07227H35.3848V7.49023H36.9492V5.17871H39.085ZM55.2129 12.3418C55.2129 13.8125 54.8789 14.9873 54.2109 15.8662C53.543 16.7393 52.6465 17.1758 51.5215 17.1758C50.4785 17.1758 49.6436 16.833 49.0166 16.1475V20.6562H46.8809V7.49023H48.8496L48.9375 8.45703C49.5645 7.69531 50.417 7.31445 51.4951 7.31445C52.6553 7.31445 53.5635 7.74805 54.2197 8.61523C54.8818 9.47656 55.2129 10.6748 55.2129 12.21V12.3418ZM53.0859 12.1572C53.0859 11.208 52.8955 10.4551 52.5146 9.89844C52.1396 9.3418 51.6006 9.06348 50.8975 9.06348C50.0244 9.06348 49.3975 9.42383 49.0166 10.1445V14.3633C49.4033 15.1016 50.0361 15.4707 50.915 15.4707C51.5947 15.4707 52.125 15.1982 52.5059 14.6533C52.8926 14.1025 53.0859 13.2705 53.0859 12.1572ZM56.6279 12.1572C56.6279 11.2256 56.8125 10.3877 57.1816 9.64355C57.5508 8.89355 58.0693 8.31934 58.7373 7.9209C59.4053 7.5166 60.1729 7.31445 61.04 7.31445C62.3232 7.31445 63.3633 7.72754 64.1602 8.55371C64.9629 9.37988 65.3965 10.4756 65.4609 11.8408L65.4697 12.3418C65.4697 13.2793 65.2881 14.1172 64.9248 14.8555C64.5674 15.5938 64.0518 16.165 63.3779 16.5693C62.71 16.9736 61.9365 17.1758 61.0576 17.1758C59.7158 17.1758 58.6406 16.7305 57.832 15.8398C57.0293 14.9434 56.6279 13.751 56.6279 12.2627V12.1572ZM58.7637 12.3418C58.7637 13.3203 58.9658 14.0879 59.3701 14.6445C59.7744 15.1953 60.3369 15.4707 61.0576 15.4707C61.7783 15.4707 62.3379 15.1895 62.7363 14.627C63.1406 14.0645 63.3428 13.2412 63.3428 12.1572C63.3428 11.1963 63.1348 10.4346 62.7188 9.87207C62.3086 9.30957 61.749 9.02832 61.04 9.02832C60.3428 9.02832 59.7891 9.30664 59.3789 9.86328C58.9688 10.4141 58.7637 11.2402 58.7637 12.3418ZM75.6035 12.3418C75.6035 13.8125 75.2695 14.9873 74.6016 15.8662C73.9336 16.7393 73.0371 17.1758 71.9121 17.1758C70.8691 17.1758 70.0342 16.833 69.4072 16.1475V20.6562H67.2715V7.49023H69.2402L69.3281 8.45703C69.9551 7.69531 70.8076 7.31445 71.8857 7.31445C73.0459 7.31445 73.9541 7.74805 74.6104 8.61523C75.2725 9.47656 75.6035 10.6748 75.6035 12.21V12.3418ZM73.4766 12.1572C73.4766 11.208 73.2861 10.4551 72.9053 9.89844C72.5303 9.3418 71.9912 9.06348 71.2881 9.06348C70.415 9.06348 69.7881 9.42383 69.4072 10.1445V14.3633C69.7939 15.1016 70.4268 15.4707 71.3057 15.4707C71.9854 15.4707 72.5156 15.1982 72.8965 14.6533C73.2832 14.1025 73.4766 13.2705 73.4766 12.1572ZM83.1797 16.0684C82.5527 16.8066 81.6621 17.1758 80.5078 17.1758C79.4766 17.1758 78.6943 16.874 78.1611 16.2705C77.6338 15.667 77.3701 14.7939 77.3701 13.6514V7.49023H79.5059V13.625C79.5059 14.832 80.0068 15.4355 81.0088 15.4355C82.0459 15.4355 82.7461 15.0635 83.1094 14.3193V7.49023H85.2451V17H83.2324L83.1797 16.0684ZM89.6924 17H87.5566V3.5H89.6924V17ZM97.708 17C97.6143 16.8184 97.5322 16.5225 97.4619 16.1123C96.7822 16.8213 95.9502 17.1758 94.9658 17.1758C94.0107 17.1758 93.2314 16.9033 92.6279 16.3584C92.0244 15.8135 91.7227 15.1396 91.7227 14.3369C91.7227 13.3232 92.0977 12.5469 92.8477 12.0078C93.6035 11.4629 94.6816 11.1904 96.082 11.1904H97.3916V10.5664C97.3916 10.0742 97.2539 9.68164 96.9785 9.38867C96.7031 9.08984 96.2842 8.94043 95.7217 8.94043C95.2354 8.94043 94.8369 9.06348 94.5264 9.30957C94.2158 9.5498 94.0605 9.85742 94.0605 10.2324H91.9248C91.9248 9.71094 92.0977 9.22461 92.4434 8.77344C92.7891 8.31641 93.2578 7.95898 93.8496 7.70117C94.4473 7.44336 95.1123 7.31445 95.8447 7.31445C96.958 7.31445 97.8457 7.5957 98.5078 8.1582C99.1699 8.71484 99.5098 9.5 99.5273 10.5137V14.8027C99.5273 15.6582 99.6475 16.3408 99.8877 16.8506V17H97.708ZM95.3613 15.4619C95.7832 15.4619 96.1787 15.3594 96.5479 15.1543C96.9229 14.9492 97.2041 14.6738 97.3916 14.3281V12.5352H96.2402C95.4492 12.5352 94.8545 12.6729 94.4561 12.9482C94.0576 13.2236 93.8584 13.6133 93.8584 14.1172C93.8584 14.5273 93.9932 14.8555 94.2627 15.1016C94.5381 15.3418 94.9043 15.4619 95.3613 15.4619ZM106.743 9.44141C106.462 9.39453 106.172 9.37109 105.873 9.37109C104.895 9.37109 104.235 9.74609 103.896 10.4961V17H101.76V7.49023H103.799L103.852 8.55371C104.367 7.72754 105.082 7.31445 105.996 7.31445C106.301 7.31445 106.553 7.35547 106.752 7.4375L106.743 9.44141ZM112.175 12.1748C112.175 10.71 112.515 9.53516 113.194 8.65039C113.874 7.75977 114.785 7.31445 115.928 7.31445C116.936 7.31445 117.75 7.66602 118.371 8.36914V3.5H120.507V17H118.573L118.468 16.0156C117.829 16.7891 116.977 17.1758 115.91 17.1758C114.797 17.1758 113.895 16.7275 113.203 15.8311C112.518 14.9346 112.175 13.7158 112.175 12.1748ZM114.311 12.3594C114.311 13.3262 114.495 14.082 114.864 14.627C115.239 15.166 115.77 15.4355 116.455 15.4355C117.328 15.4355 117.967 15.0459 118.371 14.2666V10.2061C117.979 9.44434 117.346 9.06348 116.473 9.06348C115.781 9.06348 115.248 9.33887 114.873 9.88965C114.498 10.4346 114.311 11.2578 114.311 12.3594ZM128.417 17C128.323 16.8184 128.241 16.5225 128.171 16.1123C127.491 16.8213 126.659 17.1758 125.675 17.1758C124.72 17.1758 123.94 16.9033 123.337 16.3584C122.733 15.8135 122.432 15.1396 122.432 14.3369C122.432 13.3232 122.807 12.5469 123.557 12.0078C124.312 11.4629 125.391 11.1904 126.791 11.1904H128.101V10.5664C128.101 10.0742 127.963 9.68164 127.688 9.38867C127.412 9.08984 126.993 8.94043 126.431 8.94043C125.944 8.94043 125.546 9.06348 125.235 9.30957C124.925 9.5498 124.77 9.85742 124.77 10.2324H122.634C122.634 9.71094 122.807 9.22461 123.152 8.77344C123.498 8.31641 123.967 7.95898 124.559 7.70117C125.156 7.44336 125.821 7.31445 126.554 7.31445C127.667 7.31445 128.555 7.5957 129.217 8.1582C129.879 8.71484 130.219 9.5 130.236 10.5137V14.8027C130.236 15.6582 130.356 16.3408 130.597 16.8506V17H128.417ZM126.07 15.4619C126.492 15.4619 126.888 15.3594 127.257 15.1543C127.632 14.9492 127.913 14.6738 128.101 14.3281V12.5352H126.949C126.158 12.5352 125.563 12.6729 125.165 12.9482C124.767 13.2236 124.567 13.6133 124.567 14.1172C124.567 14.5273 124.702 14.8555 124.972 15.1016C125.247 15.3418 125.613 15.4619 126.07 15.4619ZM135.659 13.9414L137.593 7.49023H139.869L136.09 18.4414C135.51 20.041 134.525 20.8408 133.137 20.8408C132.826 20.8408 132.483 20.7881 132.108 20.6826V19.0303L132.513 19.0566C133.052 19.0566 133.456 18.957 133.726 18.7578C134.001 18.5645 134.218 18.2363 134.376 17.7734L134.684 16.9561L131.344 7.49023H133.646L135.659 13.9414Z" fill="#FF7D84"/>
<path d="M248.65 14.7588L250.479 7.49023H252.104L249.336 17H248.018L245.706 9.79297L243.456 17H242.138L239.378 7.49023H240.995L242.867 14.6094L245.082 7.49023H246.392L248.65 14.7588ZM257.712 17.1758C256.423 17.1758 255.374 16.7539 254.565 15.9102C253.757 15.0605 253.353 13.9268 253.353 12.5088V12.21C253.353 11.2666 253.531 10.4258 253.889 9.6875C254.252 8.94336 254.756 8.36328 255.4 7.94727C256.051 7.52539 256.754 7.31445 257.51 7.31445C258.746 7.31445 259.707 7.72168 260.393 8.53613C261.078 9.35059 261.421 10.5166 261.421 12.0342V12.7109H254.979C255.002 13.6484 255.274 14.4072 255.796 14.9873C256.323 15.5615 256.991 15.8486 257.8 15.8486C258.374 15.8486 258.86 15.7314 259.259 15.4971C259.657 15.2627 260.006 14.9521 260.305 14.5654L261.298 15.3389C260.501 16.5635 259.306 17.1758 257.712 17.1758ZM257.51 8.65039C256.854 8.65039 256.303 8.89062 255.857 9.37109C255.412 9.8457 255.137 10.5137 255.031 11.375H259.795V11.252C259.748 10.4258 259.525 9.78711 259.127 9.33594C258.729 8.87891 258.189 8.65039 257.51 8.65039ZM262.915 12.166C262.915 10.707 263.261 9.53516 263.952 8.65039C264.644 7.75977 265.549 7.31445 266.668 7.31445C267.781 7.31445 268.663 7.69531 269.313 8.45703V3.5H270.939V17H269.445L269.366 15.9805C268.716 16.7773 267.811 17.1758 266.65 17.1758C265.549 17.1758 264.649 16.7246 263.952 15.8223C263.261 14.9199 262.915 13.7422 262.915 12.2891V12.166ZM264.541 12.3506C264.541 13.4287 264.764 14.2725 265.209 14.8818C265.654 15.4912 266.27 15.7959 267.055 15.7959C268.086 15.7959 268.839 15.333 269.313 14.4072V10.0391C268.827 9.14258 268.08 8.69434 267.072 8.69434C266.275 8.69434 265.654 9.00195 265.209 9.61719C264.764 10.2324 264.541 11.1436 264.541 12.3506ZM275.009 7.49023L275.062 8.68555C275.788 7.77148 276.737 7.31445 277.909 7.31445C279.919 7.31445 280.933 8.44824 280.95 10.7158V17H279.324V10.707C279.318 10.0215 279.16 9.51465 278.85 9.18652C278.545 8.8584 278.067 8.69434 277.417 8.69434C276.89 8.69434 276.427 8.83496 276.028 9.11621C275.63 9.39746 275.319 9.7666 275.097 10.2236V17H273.471V7.49023H275.009ZM287.349 17.1758C286.06 17.1758 285.011 16.7539 284.202 15.9102C283.394 15.0605 282.989 13.9268 282.989 12.5088V12.21C282.989 11.2666 283.168 10.4258 283.525 9.6875C283.889 8.94336 284.393 8.36328 285.037 7.94727C285.688 7.52539 286.391 7.31445 287.146 7.31445C288.383 7.31445 289.344 7.72168 290.029 8.53613C290.715 9.35059 291.058 10.5166 291.058 12.0342V12.7109H284.615C284.639 13.6484 284.911 14.4072 285.433 14.9873C285.96 15.5615 286.628 15.8486 287.437 15.8486C288.011 15.8486 288.497 15.7314 288.896 15.4971C289.294 15.2627 289.643 14.9521 289.941 14.5654L290.935 15.3389C290.138 16.5635 288.942 17.1758 287.349 17.1758ZM287.146 8.65039C286.49 8.65039 285.939 8.89062 285.494 9.37109C285.049 9.8457 284.773 10.5137 284.668 11.375H289.432V11.252C289.385 10.4258 289.162 9.78711 288.764 9.33594C288.365 8.87891 287.826 8.65039 287.146 8.65039ZM298.484 14.4775C298.484 14.0381 298.317 13.6982 297.983 13.458C297.655 13.2119 297.078 13.001 296.252 12.8252C295.432 12.6494 294.778 12.4385 294.292 12.1924C293.812 11.9463 293.454 11.6533 293.22 11.3135C292.991 10.9736 292.877 10.5693 292.877 10.1006C292.877 9.32129 293.205 8.66211 293.861 8.12305C294.523 7.58398 295.367 7.31445 296.393 7.31445C297.471 7.31445 298.344 7.59277 299.012 8.14941C299.686 8.70605 300.022 9.41797 300.022 10.2852H298.388C298.388 9.83984 298.197 9.45605 297.816 9.13379C297.441 8.81152 296.967 8.65039 296.393 8.65039C295.801 8.65039 295.338 8.7793 295.004 9.03711C294.67 9.29492 294.503 9.63184 294.503 10.0479C294.503 10.4404 294.658 10.7363 294.969 10.9355C295.279 11.1348 295.839 11.3252 296.647 11.5068C297.462 11.6885 298.121 11.9053 298.625 12.1572C299.129 12.4092 299.501 12.7139 299.741 13.0713C299.987 13.4229 300.11 13.8535 300.11 14.3633C300.11 15.2129 299.771 15.8955 299.091 16.4111C298.411 16.9209 297.529 17.1758 296.445 17.1758C295.684 17.1758 295.01 17.041 294.424 16.7715C293.838 16.502 293.378 16.127 293.044 15.6465C292.716 15.1602 292.552 14.6357 292.552 14.0732H294.178C294.207 14.6182 294.424 15.0518 294.828 15.374C295.238 15.6904 295.777 15.8486 296.445 15.8486C297.061 15.8486 297.553 15.7256 297.922 15.4795C298.297 15.2275 298.484 14.8936 298.484 14.4775ZM301.833 12.166C301.833 10.707 302.179 9.53516 302.87 8.65039C303.562 7.75977 304.467 7.31445 305.586 7.31445C306.699 7.31445 307.581 7.69531 308.231 8.45703V3.5H309.857V17H308.363L308.284 15.9805C307.634 16.7773 306.729 17.1758 305.568 17.1758C304.467 17.1758 303.567 16.7246 302.87 15.8223C302.179 14.9199 301.833 13.7422 301.833 12.2891V12.166ZM303.459 12.3506C303.459 13.4287 303.682 14.2725 304.127 14.8818C304.572 15.4912 305.188 15.7959 305.973 15.7959C307.004 15.7959 307.757 15.333 308.231 14.4072V10.0391C307.745 9.14258 306.998 8.69434 305.99 8.69434C305.193 8.69434 304.572 9.00195 304.127 9.61719C303.682 10.2324 303.459 11.1436 303.459 12.3506ZM318.26 17C318.166 16.8125 318.09 16.4785 318.031 15.998C317.275 16.7832 316.373 17.1758 315.324 17.1758C314.387 17.1758 313.616 16.9121 313.013 16.3848C312.415 15.8516 312.116 15.1777 312.116 14.3633C312.116 13.373 312.491 12.6055 313.241 12.0605C313.997 11.5098 315.058 11.2344 316.423 11.2344H318.005V10.4873C318.005 9.91895 317.835 9.46777 317.495 9.13379C317.155 8.79395 316.654 8.62402 315.992 8.62402C315.412 8.62402 314.926 8.77051 314.533 9.06348C314.141 9.35645 313.944 9.71094 313.944 10.127H312.31C312.31 9.65234 312.477 9.19531 312.811 8.75586C313.15 8.31055 313.607 7.95898 314.182 7.70117C314.762 7.44336 315.397 7.31445 316.089 7.31445C317.185 7.31445 318.043 7.58984 318.664 8.14062C319.285 8.68555 319.607 9.43848 319.631 10.3994V14.7764C319.631 15.6494 319.742 16.3438 319.965 16.8594V17H318.26ZM315.562 15.7607C316.071 15.7607 316.555 15.6289 317.012 15.3652C317.469 15.1016 317.8 14.7588 318.005 14.3369V12.3857H316.73C314.738 12.3857 313.742 12.9688 313.742 14.1348C313.742 14.6445 313.912 15.043 314.252 15.3301C314.592 15.6172 315.028 15.7607 315.562 15.7607ZM325.15 14.6182L327.365 7.49023H329.105L325.282 18.4678C324.69 20.0498 323.75 20.8408 322.461 20.8408L322.153 20.8145L321.547 20.7002V19.3818L321.986 19.417C322.537 19.417 322.965 19.3057 323.27 19.083C323.58 18.8604 323.835 18.4531 324.034 17.8613L324.395 16.8945L321.002 7.49023H322.777L325.15 14.6182Z" fill="black"/>
<path d="M248.448 54H240.063V52.8311L244.493 47.9092C245.149 47.165 245.601 46.5615 245.847 46.0986C246.099 45.6299 246.225 45.1465 246.225 44.6484C246.225 43.9805 246.022 43.4326 245.618 43.0049C245.214 42.5771 244.675 42.3633 244.001 42.3633C243.192 42.3633 242.562 42.5947 242.111 43.0576C241.666 43.5146 241.443 44.1533 241.443 44.9736H239.817C239.817 43.7959 240.195 42.8438 240.951 42.1172C241.713 41.3906 242.729 41.0273 244.001 41.0273C245.19 41.0273 246.131 41.3408 246.822 41.9678C247.514 42.5889 247.859 43.418 247.859 44.4551C247.859 45.7148 247.057 47.2148 245.451 48.9551L242.023 52.6729H248.448V54ZM250.918 47.584L251.568 41.2031H258.125V42.7061H252.948L252.562 46.1953C253.188 45.8262 253.9 45.6416 254.697 45.6416C255.863 45.6416 256.789 46.0283 257.475 46.8018C258.16 47.5693 258.503 48.6094 258.503 49.9219C258.503 51.2402 258.146 52.2803 257.431 53.042C256.722 53.7979 255.729 54.1758 254.451 54.1758C253.32 54.1758 252.397 53.8623 251.683 53.2354C250.968 52.6084 250.561 51.7412 250.461 50.6338H251.999C252.099 51.3662 252.359 51.9199 252.781 52.2949C253.203 52.6641 253.76 52.8486 254.451 52.8486C255.207 52.8486 255.799 52.5908 256.227 52.0752C256.66 51.5596 256.877 50.8477 256.877 49.9395C256.877 49.084 256.643 48.3984 256.174 47.8828C255.711 47.3613 255.093 47.1006 254.319 47.1006C253.61 47.1006 253.054 47.2559 252.649 47.5664L252.219 47.918L250.918 47.584ZM260.138 43.6641C260.138 42.8965 260.381 42.2637 260.867 41.7656C261.359 41.2676 261.989 41.0186 262.757 41.0186C263.536 41.0186 264.166 41.2705 264.646 41.7744C265.133 42.2725 265.376 42.9199 265.376 43.7168V44.3408C265.376 45.1143 265.13 45.7471 264.638 46.2393C264.151 46.7256 263.53 46.9688 262.774 46.9688C262.013 46.9688 261.383 46.7256 260.885 46.2393C260.387 45.7471 260.138 45.0938 260.138 44.2793V43.6641ZM261.351 44.3408C261.351 44.7979 261.479 45.1758 261.737 45.4746C261.995 45.7676 262.341 45.9141 262.774 45.9141C263.19 45.9141 263.524 45.7705 263.776 45.4834C264.034 45.1963 264.163 44.8037 264.163 44.3057V43.6641C264.163 43.207 264.037 42.8291 263.785 42.5303C263.533 42.2314 263.19 42.082 262.757 42.082C262.323 42.082 261.98 42.2314 261.729 42.5303C261.477 42.8291 261.351 43.2188 261.351 43.6992V44.3408ZM266.369 50.8623C266.369 50.0947 266.612 49.4648 267.099 48.9727C267.591 48.4746 268.221 48.2256 268.988 48.2256C269.756 48.2256 270.386 48.4717 270.878 48.9639C271.37 49.4561 271.616 50.1094 271.616 50.9238V51.5479C271.616 52.3154 271.37 52.9482 270.878 53.4463C270.392 53.9385 269.768 54.1846 269.006 54.1846C268.244 54.1846 267.614 53.9414 267.116 53.4551C266.618 52.9629 266.369 52.3096 266.369 51.4951V50.8623ZM267.582 51.5479C267.582 52.0107 267.711 52.3916 267.969 52.6904C268.227 52.9834 268.572 53.1299 269.006 53.1299C269.428 53.1299 269.765 52.9863 270.017 52.6992C270.269 52.4062 270.395 52.0107 270.395 51.5127V50.8623C270.395 50.3994 270.266 50.0215 270.008 49.7285C269.756 49.4355 269.416 49.2891 268.988 49.2891C268.572 49.2891 268.232 49.4355 267.969 49.7285C267.711 50.0156 267.582 50.4053 267.582 50.8975V51.5479ZM263.144 53.0332L262.221 52.4531L268.47 42.4512L269.393 43.0312L263.144 53.0332Z" fill="black"/>
<path d="M4.18359 41.2031L7.875 51.0117L11.5576 41.2031H14.4316V54H12.2168V49.7812L12.4365 44.1387L8.65723 54H7.06641L3.2959 44.1475L3.51562 49.7812V54H1.30078V41.2031H4.18359ZM16.4619 49.1572C16.4619 48.2256 16.6465 47.3877 17.0156 46.6436C17.3848 45.8936 17.9033 45.3193 18.5713 44.9209C19.2393 44.5166 20.0068 44.3145 20.874 44.3145C22.1572 44.3145 23.1973 44.7275 23.9941 45.5537C24.7969 46.3799 25.2305 47.4756 25.2949 48.8408L25.3037 49.3418C25.3037 50.2793 25.1221 51.1172 24.7588 51.8555C24.4014 52.5938 23.8857 53.165 23.2119 53.5693C22.5439 53.9736 21.7705 54.1758 20.8916 54.1758C19.5498 54.1758 18.4746 53.7305 17.666 52.8398C16.8633 51.9434 16.4619 50.751 16.4619 49.2627V49.1572ZM18.5977 49.3418C18.5977 50.3203 18.7998 51.0879 19.2041 51.6445C19.6084 52.1953 20.1709 52.4707 20.8916 52.4707C21.6123 52.4707 22.1719 52.1895 22.5703 51.627C22.9746 51.0645 23.1768 50.2412 23.1768 49.1572C23.1768 48.1963 22.9688 47.4346 22.5527 46.8721C22.1426 46.3096 21.583 46.0283 20.874 46.0283C20.1768 46.0283 19.623 46.3066 19.2129 46.8633C18.8027 47.4141 18.5977 48.2402 18.5977 49.3418ZM32.4404 51.416C32.4404 51.0352 32.2822 50.7451 31.9658 50.5459C31.6553 50.3467 31.1367 50.1709 30.4102 50.0186C29.6836 49.8662 29.0771 49.6729 28.5908 49.4385C27.5244 48.9229 26.9912 48.1758 26.9912 47.1973C26.9912 46.377 27.3369 45.6914 28.0283 45.1406C28.7197 44.5898 29.5986 44.3145 30.665 44.3145C31.8018 44.3145 32.7188 44.5957 33.416 45.1582C34.1191 45.7207 34.4707 46.4502 34.4707 47.3467H32.335C32.335 46.9365 32.1826 46.5967 31.8779 46.3271C31.5732 46.0518 31.1689 45.9141 30.665 45.9141C30.1963 45.9141 29.8125 46.0225 29.5137 46.2393C29.2207 46.4561 29.0742 46.7461 29.0742 47.1094C29.0742 47.4375 29.2119 47.6924 29.4873 47.874C29.7627 48.0557 30.3193 48.2402 31.1572 48.4277C31.9951 48.6094 32.6514 48.8291 33.126 49.0869C33.6064 49.3389 33.9609 49.6436 34.1895 50.001C34.4238 50.3584 34.541 50.792 34.541 51.3018C34.541 52.1572 34.1865 52.8516 33.4775 53.3848C32.7686 53.9121 31.8398 54.1758 30.6914 54.1758C29.9121 54.1758 29.2178 54.0352 28.6084 53.7539C27.999 53.4727 27.5244 53.0859 27.1846 52.5938C26.8447 52.1016 26.6748 51.5713 26.6748 51.0029H28.749C28.7783 51.5068 28.9688 51.8965 29.3203 52.1719C29.6719 52.4414 30.1377 52.5762 30.7178 52.5762C31.2803 52.5762 31.708 52.4707 32.001 52.2598C32.2939 52.043 32.4404 51.7617 32.4404 51.416ZM39.085 42.1787V44.4902H40.7637V46.0723H39.085V51.3809C39.085 51.7441 39.1553 52.0078 39.2959 52.1719C39.4424 52.3301 39.7002 52.4092 40.0693 52.4092C40.3154 52.4092 40.5645 52.3799 40.8164 52.3213V53.9736C40.3301 54.1084 39.8613 54.1758 39.4102 54.1758C37.7695 54.1758 36.9492 53.2705 36.9492 51.46V46.0723H35.3848V44.4902H36.9492V42.1787H39.085ZM55.2129 49.3418C55.2129 50.8125 54.8789 51.9873 54.2109 52.8662C53.543 53.7393 52.6465 54.1758 51.5215 54.1758C50.4785 54.1758 49.6436 53.833 49.0166 53.1475V57.6562H46.8809V44.4902H48.8496L48.9375 45.457C49.5645 44.6953 50.417 44.3145 51.4951 44.3145C52.6553 44.3145 53.5635 44.748 54.2197 45.6152C54.8818 46.4766 55.2129 47.6748 55.2129 49.21V49.3418ZM53.0859 49.1572C53.0859 48.208 52.8955 47.4551 52.5146 46.8984C52.1396 46.3418 51.6006 46.0635 50.8975 46.0635C50.0244 46.0635 49.3975 46.4238 49.0166 47.1445V51.3633C49.4033 52.1016 50.0361 52.4707 50.915 52.4707C51.5947 52.4707 52.125 52.1982 52.5059 51.6533C52.8926 51.1025 53.0859 50.2705 53.0859 49.1572ZM56.6279 49.1572C56.6279 48.2256 56.8125 47.3877 57.1816 46.6436C57.5508 45.8936 58.0693 45.3193 58.7373 44.9209C59.4053 44.5166 60.1729 44.3145 61.04 44.3145C62.3232 44.3145 63.3633 44.7275 64.1602 45.5537C64.9629 46.3799 65.3965 47.4756 65.4609 48.8408L65.4697 49.3418C65.4697 50.2793 65.2881 51.1172 64.9248 51.8555C64.5674 52.5938 64.0518 53.165 63.3779 53.5693C62.71 53.9736 61.9365 54.1758 61.0576 54.1758C59.7158 54.1758 58.6406 53.7305 57.832 52.8398C57.0293 51.9434 56.6279 50.751 56.6279 49.2627V49.1572ZM58.7637 49.3418C58.7637 50.3203 58.9658 51.0879 59.3701 51.6445C59.7744 52.1953 60.3369 52.4707 61.0576 52.4707C61.7783 52.4707 62.3379 52.1895 62.7363 51.627C63.1406 51.0645 63.3428 50.2412 63.3428 49.1572C63.3428 48.1963 63.1348 47.4346 62.7188 46.8721C62.3086 46.3096 61.749 46.0283 61.04 46.0283C60.3428 46.0283 59.7891 46.3066 59.3789 46.8633C58.9688 47.4141 58.7637 48.2402 58.7637 49.3418ZM75.6035 49.3418C75.6035 50.8125 75.2695 51.9873 74.6016 52.8662C73.9336 53.7393 73.0371 54.1758 71.9121 54.1758C70.8691 54.1758 70.0342 53.833 69.4072 53.1475V57.6562H67.2715V44.4902H69.2402L69.3281 45.457C69.9551 44.6953 70.8076 44.3145 71.8857 44.3145C73.0459 44.3145 73.9541 44.748 74.6104 45.6152C75.2725 46.4766 75.6035 47.6748 75.6035 49.21V49.3418ZM73.4766 49.1572C73.4766 48.208 73.2861 47.4551 72.9053 46.8984C72.5303 46.3418 71.9912 46.0635 71.2881 46.0635C70.415 46.0635 69.7881 46.4238 69.4072 47.1445V51.3633C69.7939 52.1016 70.4268 52.4707 71.3057 52.4707C71.9854 52.4707 72.5156 52.1982 72.8965 51.6533C73.2832 51.1025 73.4766 50.2705 73.4766 49.1572ZM83.1797 53.0684C82.5527 53.8066 81.6621 54.1758 80.5078 54.1758C79.4766 54.1758 78.6943 53.874 78.1611 53.2705C77.6338 52.667 77.3701 51.7939 77.3701 50.6514V44.4902H79.5059V50.625C79.5059 51.832 80.0068 52.4355 81.0088 52.4355C82.0459 52.4355 82.7461 52.0635 83.1094 51.3193V44.4902H85.2451V54H83.2324L83.1797 53.0684ZM89.6924 54H87.5566V40.5H89.6924V54ZM97.708 54C97.6143 53.8184 97.5322 53.5225 97.4619 53.1123C96.7822 53.8213 95.9502 54.1758 94.9658 54.1758C94.0107 54.1758 93.2314 53.9033 92.6279 53.3584C92.0244 52.8135 91.7227 52.1396 91.7227 51.3369C91.7227 50.3232 92.0977 49.5469 92.8477 49.0078C93.6035 48.4629 94.6816 48.1904 96.082 48.1904H97.3916V47.5664C97.3916 47.0742 97.2539 46.6816 96.9785 46.3887C96.7031 46.0898 96.2842 45.9404 95.7217 45.9404C95.2354 45.9404 94.8369 46.0635 94.5264 46.3096C94.2158 46.5498 94.0605 46.8574 94.0605 47.2324H91.9248C91.9248 46.7109 92.0977 46.2246 92.4434 45.7734C92.7891 45.3164 93.2578 44.959 93.8496 44.7012C94.4473 44.4434 95.1123 44.3145 95.8447 44.3145C96.958 44.3145 97.8457 44.5957 98.5078 45.1582C99.1699 45.7148 99.5098 46.5 99.5273 47.5137V51.8027C99.5273 52.6582 99.6475 53.3408 99.8877 53.8506V54H97.708ZM95.3613 52.4619C95.7832 52.4619 96.1787 52.3594 96.5479 52.1543C96.9229 51.9492 97.2041 51.6738 97.3916 51.3281V49.5352H96.2402C95.4492 49.5352 94.8545 49.6729 94.4561 49.9482C94.0576 50.2236 93.8584 50.6133 93.8584 51.1172C93.8584 51.5273 93.9932 51.8555 94.2627 52.1016C94.5381 52.3418 94.9043 52.4619 95.3613 52.4619ZM106.743 46.4414C106.462 46.3945 106.172 46.3711 105.873 46.3711C104.895 46.3711 104.235 46.7461 103.896 47.4961V54H101.76V44.4902H103.799L103.852 45.5537C104.367 44.7275 105.082 44.3145 105.996 44.3145C106.301 44.3145 106.553 44.3555 106.752 44.4375L106.743 46.4414ZM112.175 49.1748C112.175 47.71 112.515 46.5352 113.194 45.6504C113.874 44.7598 114.785 44.3145 115.928 44.3145C116.936 44.3145 117.75 44.666 118.371 45.3691V40.5H120.507V54H118.573L118.468 53.0156C117.829 53.7891 116.977 54.1758 115.91 54.1758C114.797 54.1758 113.895 53.7275 113.203 52.8311C112.518 51.9346 112.175 50.7158 112.175 49.1748ZM114.311 49.3594C114.311 50.3262 114.495 51.082 114.864 51.627C115.239 52.166 115.77 52.4355 116.455 52.4355C117.328 52.4355 117.967 52.0459 118.371 51.2666V47.2061C117.979 46.4443 117.346 46.0635 116.473 46.0635C115.781 46.0635 115.248 46.3389 114.873 46.8896C114.498 47.4346 114.311 48.2578 114.311 49.3594ZM125.007 54H122.871V44.4902H125.007V54ZM122.739 42.0205C122.739 41.6924 122.842 41.4199 123.047 41.2031C123.258 40.9863 123.557 40.8779 123.943 40.8779C124.33 40.8779 124.629 40.9863 124.84 41.2031C125.051 41.4199 125.156 41.6924 125.156 42.0205C125.156 42.3428 125.051 42.6123 124.84 42.8291C124.629 43.04 124.33 43.1455 123.943 43.1455C123.557 43.1455 123.258 43.04 123.047 42.8291C122.842 42.6123 122.739 42.3428 122.739 42.0205ZM132.671 51.416C132.671 51.0352 132.513 50.7451 132.196 50.5459C131.886 50.3467 131.367 50.1709 130.641 50.0186C129.914 49.8662 129.308 49.6729 128.821 49.4385C127.755 48.9229 127.222 48.1758 127.222 47.1973C127.222 46.377 127.567 45.6914 128.259 45.1406C128.95 44.5898 129.829 44.3145 130.896 44.3145C132.032 44.3145 132.949 44.5957 133.646 45.1582C134.35 45.7207 134.701 46.4502 134.701 47.3467H132.565C132.565 46.9365 132.413 46.5967 132.108 46.3271C131.804 46.0518 131.399 45.9141 130.896 45.9141C130.427 45.9141 130.043 46.0225 129.744 46.2393C129.451 46.4561 129.305 46.7461 129.305 47.1094C129.305 47.4375 129.442 47.6924 129.718 47.874C129.993 48.0557 130.55 48.2402 131.388 48.4277C132.226 48.6094 132.882 48.8291 133.356 49.0869C133.837 49.3389 134.191 49.6436 134.42 50.001C134.654 50.3584 134.771 50.792 134.771 51.3018C134.771 52.1572 134.417 52.8516 133.708 53.3848C132.999 53.9121 132.07 54.1758 130.922 54.1758C130.143 54.1758 129.448 54.0352 128.839 53.7539C128.229 53.4727 127.755 53.0859 127.415 52.5938C127.075 52.1016 126.905 51.5713 126.905 51.0029H128.979C129.009 51.5068 129.199 51.8965 129.551 52.1719C129.902 52.4414 130.368 52.5762 130.948 52.5762C131.511 52.5762 131.938 52.4707 132.231 52.2598C132.524 52.043 132.671 51.7617 132.671 51.416ZM140.546 52.4707C141.079 52.4707 141.521 52.3154 141.873 52.0049C142.225 51.6943 142.412 51.3105 142.436 50.8535H144.448C144.425 51.4453 144.24 51.999 143.895 52.5146C143.549 53.0244 143.08 53.4287 142.488 53.7275C141.896 54.0264 141.258 54.1758 140.572 54.1758C139.242 54.1758 138.188 53.7451 137.408 52.8838C136.629 52.0225 136.239 50.833 136.239 49.3154V49.0957C136.239 47.6484 136.626 46.4912 137.399 45.624C138.173 44.751 139.228 44.3145 140.563 44.3145C141.694 44.3145 142.614 44.6455 143.323 45.3076C144.038 45.9639 144.413 46.8281 144.448 47.9004H142.436C142.412 47.3555 142.225 46.9072 141.873 46.5557C141.527 46.2041 141.085 46.0283 140.546 46.0283C139.854 46.0283 139.321 46.2803 138.946 46.7842C138.571 47.2822 138.381 48.041 138.375 49.0605V49.4033C138.375 50.4346 138.56 51.2051 138.929 51.7148C139.304 52.2188 139.843 52.4707 140.546 52.4707ZM145.661 49.1572C145.661 48.2256 145.846 47.3877 146.215 46.6436C146.584 45.8936 147.103 45.3193 147.771 44.9209C148.438 44.5166 149.206 44.3145 150.073 44.3145C151.356 44.3145 152.396 44.7275 153.193 45.5537C153.996 46.3799 154.43 47.4756 154.494 48.8408L154.503 49.3418C154.503 50.2793 154.321 51.1172 153.958 51.8555C153.601 52.5938 153.085 53.165 152.411 53.5693C151.743 53.9736 150.97 54.1758 150.091 54.1758C148.749 54.1758 147.674 53.7305 146.865 52.8398C146.062 51.9434 145.661 50.751 145.661 49.2627V49.1572ZM147.797 49.3418C147.797 50.3203 147.999 51.0879 148.403 51.6445C148.808 52.1953 149.37 52.4707 150.091 52.4707C150.812 52.4707 151.371 52.1895 151.77 51.627C152.174 51.0645 152.376 50.2412 152.376 49.1572C152.376 48.1963 152.168 47.4346 151.752 46.8721C151.342 46.3096 150.782 46.0283 150.073 46.0283C149.376 46.0283 148.822 46.3066 148.412 46.8633C148.002 47.4141 147.797 48.2402 147.797 49.3418ZM162.07 53.0684C161.443 53.8066 160.553 54.1758 159.398 54.1758C158.367 54.1758 157.585 53.874 157.052 53.2705C156.524 52.667 156.261 51.7939 156.261 50.6514V44.4902H158.396V50.625C158.396 51.832 158.897 52.4355 159.899 52.4355C160.937 52.4355 161.637 52.0635 162 51.3193V44.4902H164.136V54H162.123L162.07 53.0684ZM168.293 44.4902L168.354 45.5889C169.058 44.7393 169.98 44.3145 171.123 44.3145C173.104 44.3145 174.111 45.4482 174.146 47.7158V54H172.011V47.8389C172.011 47.2354 171.879 46.79 171.615 46.5029C171.357 46.21 170.933 46.0635 170.341 46.0635C169.479 46.0635 168.838 46.4531 168.416 47.2324V54H166.28V44.4902H168.293ZM179.007 42.1787V44.4902H180.686V46.0723H179.007V51.3809C179.007 51.7441 179.077 52.0078 179.218 52.1719C179.364 52.3301 179.622 52.4092 179.991 52.4092C180.237 52.4092 180.486 52.3799 180.738 52.3213V53.9736C180.252 54.1084 179.783 54.1758 179.332 54.1758C177.691 54.1758 176.871 53.2705 176.871 51.46V46.0723H175.307V44.4902H176.871V42.1787H179.007Z" fill="#E69F54"/>
<path d="M242.428 83.8105H243.649C244.417 83.7988 245.021 83.5967 245.46 83.2041C245.899 82.8115 246.119 82.2812 246.119 81.6133C246.119 80.1133 245.372 79.3633 243.878 79.3633C243.175 79.3633 242.612 79.5654 242.19 79.9697C241.774 80.3682 241.566 80.8984 241.566 81.5605H239.94C239.94 80.5469 240.31 79.7061 241.048 79.0381C241.792 78.3643 242.735 78.0273 243.878 78.0273C245.085 78.0273 246.031 78.3467 246.717 78.9854C247.402 79.624 247.745 80.5117 247.745 81.6484C247.745 82.2051 247.563 82.7441 247.2 83.2656C246.843 83.7871 246.354 84.1768 245.732 84.4346C246.436 84.6572 246.978 85.0264 247.358 85.542C247.745 86.0576 247.938 86.6875 247.938 87.4316C247.938 88.5801 247.563 89.4912 246.813 90.165C246.063 90.8389 245.088 91.1758 243.887 91.1758C242.686 91.1758 241.707 90.8506 240.951 90.2002C240.201 89.5498 239.826 88.6914 239.826 87.625H241.461C241.461 88.2988 241.681 88.8379 242.12 89.2422C242.56 89.6465 243.148 89.8486 243.887 89.8486C244.672 89.8486 245.272 89.6436 245.688 89.2334C246.104 88.8232 246.312 88.2344 246.312 87.4668C246.312 86.7227 246.084 86.1514 245.627 85.7529C245.17 85.3545 244.511 85.1494 243.649 85.1377H242.428V83.8105ZM252.28 85.9902V91H250.593V78.2031H255.312C256.713 78.2031 257.809 78.5605 258.6 79.2754C259.396 79.9902 259.795 80.9365 259.795 82.1143C259.795 83.3564 259.405 84.3145 258.626 84.9883C257.853 85.6562 256.742 85.9902 255.295 85.9902H252.28ZM252.28 84.6104H255.312C256.215 84.6104 256.906 84.3994 257.387 83.9775C257.867 83.5498 258.107 82.9346 258.107 82.1318C258.107 81.3701 257.867 80.7607 257.387 80.3037C256.906 79.8467 256.247 79.6094 255.409 79.5918H252.28V84.6104ZM264.128 78.2031L268.312 88.6445L272.495 78.2031H274.684V91H272.996V86.0166L273.154 80.6377L268.953 91H267.661L263.469 80.6641L263.636 86.0166V91H261.948V78.2031H264.128Z" fill="black"/>
<path d="M4.18359 78.2031L7.875 88.0117L11.5576 78.2031H14.4316V91H12.2168V86.7812L12.4365 81.1387L8.65723 91H7.06641L3.2959 81.1475L3.51562 86.7812V91H1.30078V78.2031H4.18359ZM16.4619 86.1572C16.4619 85.2256 16.6465 84.3877 17.0156 83.6436C17.3848 82.8936 17.9033 82.3193 18.5713 81.9209C19.2393 81.5166 20.0068 81.3145 20.874 81.3145C22.1572 81.3145 23.1973 81.7275 23.9941 82.5537C24.7969 83.3799 25.2305 84.4756 25.2949 85.8408L25.3037 86.3418C25.3037 87.2793 25.1221 88.1172 24.7588 88.8555C24.4014 89.5938 23.8857 90.165 23.2119 90.5693C22.5439 90.9736 21.7705 91.1758 20.8916 91.1758C19.5498 91.1758 18.4746 90.7305 17.666 89.8398C16.8633 88.9434 16.4619 87.751 16.4619 86.2627V86.1572ZM18.5977 86.3418C18.5977 87.3203 18.7998 88.0879 19.2041 88.6445C19.6084 89.1953 20.1709 89.4707 20.8916 89.4707C21.6123 89.4707 22.1719 89.1895 22.5703 88.627C22.9746 88.0645 23.1768 87.2412 23.1768 86.1572C23.1768 85.1963 22.9688 84.4346 22.5527 83.8721C22.1426 83.3096 21.583 83.0283 20.874 83.0283C20.1768 83.0283 19.623 83.3066 19.2129 83.8633C18.8027 84.4141 18.5977 85.2402 18.5977 86.3418ZM32.4404 88.416C32.4404 88.0352 32.2822 87.7451 31.9658 87.5459C31.6553 87.3467 31.1367 87.1709 30.4102 87.0186C29.6836 86.8662 29.0771 86.6729 28.5908 86.4385C27.5244 85.9229 26.9912 85.1758 26.9912 84.1973C26.9912 83.377 27.3369 82.6914 28.0283 82.1406C28.7197 81.5898 29.5986 81.3145 30.665 81.3145C31.8018 81.3145 32.7188 81.5957 33.416 82.1582C34.1191 82.7207 34.4707 83.4502 34.4707 84.3467H32.335C32.335 83.9365 32.1826 83.5967 31.8779 83.3271C31.5732 83.0518 31.1689 82.9141 30.665 82.9141C30.1963 82.9141 29.8125 83.0225 29.5137 83.2393C29.2207 83.4561 29.0742 83.7461 29.0742 84.1094C29.0742 84.4375 29.2119 84.6924 29.4873 84.874C29.7627 85.0557 30.3193 85.2402 31.1572 85.4277C31.9951 85.6094 32.6514 85.8291 33.126 86.0869C33.6064 86.3389 33.9609 86.6436 34.1895 87.001C34.4238 87.3584 34.541 87.792 34.541 88.3018C34.541 89.1572 34.1865 89.8516 33.4775 90.3848C32.7686 90.9121 31.8398 91.1758 30.6914 91.1758C29.9121 91.1758 29.2178 91.0352 28.6084 90.7539C27.999 90.4727 27.5244 90.0859 27.1846 89.5938C26.8447 89.1016 26.6748 88.5713 26.6748 88.0029H28.749C28.7783 88.5068 28.9688 88.8965 29.3203 89.1719C29.6719 89.4414 30.1377 89.5762 30.7178 89.5762C31.2803 89.5762 31.708 89.4707 32.001 89.2598C32.2939 89.043 32.4404 88.7617 32.4404 88.416ZM39.085 79.1787V81.4902H40.7637V83.0723H39.085V88.3809C39.085 88.7441 39.1553 89.0078 39.2959 89.1719C39.4424 89.3301 39.7002 89.4092 40.0693 89.4092C40.3154 89.4092 40.5645 89.3799 40.8164 89.3213V90.9736C40.3301 91.1084 39.8613 91.1758 39.4102 91.1758C37.7695 91.1758 36.9492 90.2705 36.9492 88.46V83.0723H35.3848V81.4902H36.9492V79.1787H39.085ZM55.2129 86.3418C55.2129 87.8125 54.8789 88.9873 54.2109 89.8662C53.543 90.7393 52.6465 91.1758 51.5215 91.1758C50.4785 91.1758 49.6436 90.833 49.0166 90.1475V94.6562H46.8809V81.4902H48.8496L48.9375 82.457C49.5645 81.6953 50.417 81.3145 51.4951 81.3145C52.6553 81.3145 53.5635 81.748 54.2197 82.6152C54.8818 83.4766 55.2129 84.6748 55.2129 86.21V86.3418ZM53.0859 86.1572C53.0859 85.208 52.8955 84.4551 52.5146 83.8984C52.1396 83.3418 51.6006 83.0635 50.8975 83.0635C50.0244 83.0635 49.3975 83.4238 49.0166 84.1445V88.3633C49.4033 89.1016 50.0361 89.4707 50.915 89.4707C51.5947 89.4707 52.125 89.1982 52.5059 88.6533C52.8926 88.1025 53.0859 87.2705 53.0859 86.1572ZM56.6279 86.1572C56.6279 85.2256 56.8125 84.3877 57.1816 83.6436C57.5508 82.8936 58.0693 82.3193 58.7373 81.9209C59.4053 81.5166 60.1729 81.3145 61.04 81.3145C62.3232 81.3145 63.3633 81.7275 64.1602 82.5537C64.9629 83.3799 65.3965 84.4756 65.4609 85.8408L65.4697 86.3418C65.4697 87.2793 65.2881 88.1172 64.9248 88.8555C64.5674 89.5938 64.0518 90.165 63.3779 90.5693C62.71 90.9736 61.9365 91.1758 61.0576 91.1758C59.7158 91.1758 58.6406 90.7305 57.832 89.8398C57.0293 88.9434 56.6279 87.751 56.6279 86.2627V86.1572ZM58.7637 86.3418C58.7637 87.3203 58.9658 88.0879 59.3701 88.6445C59.7744 89.1953 60.3369 89.4707 61.0576 89.4707C61.7783 89.4707 62.3379 89.1895 62.7363 88.627C63.1406 88.0645 63.3428 87.2412 63.3428 86.1572C63.3428 85.1963 63.1348 84.4346 62.7188 83.8721C62.3086 83.3096 61.749 83.0283 61.04 83.0283C60.3428 83.0283 59.7891 83.3066 59.3789 83.8633C58.9688 84.4141 58.7637 85.2402 58.7637 86.3418ZM75.6035 86.3418C75.6035 87.8125 75.2695 88.9873 74.6016 89.8662C73.9336 90.7393 73.0371 91.1758 71.9121 91.1758C70.8691 91.1758 70.0342 90.833 69.4072 90.1475V94.6562H67.2715V81.4902H69.2402L69.3281 82.457C69.9551 81.6953 70.8076 81.3145 71.8857 81.3145C73.0459 81.3145 73.9541 81.748 74.6104 82.6152C75.2725 83.4766 75.6035 84.6748 75.6035 86.21V86.3418ZM73.4766 86.1572C73.4766 85.208 73.2861 84.4551 72.9053 83.8984C72.5303 83.3418 71.9912 83.0635 71.2881 83.0635C70.415 83.0635 69.7881 83.4238 69.4072 84.1445V88.3633C69.7939 89.1016 70.4268 89.4707 71.3057 89.4707C71.9854 89.4707 72.5156 89.1982 72.8965 88.6533C73.2832 88.1025 73.4766 87.2705 73.4766 86.1572ZM83.1797 90.0684C82.5527 90.8066 81.6621 91.1758 80.5078 91.1758C79.4766 91.1758 78.6943 90.874 78.1611 90.2705C77.6338 89.667 77.3701 88.7939 77.3701 87.6514V81.4902H79.5059V87.625C79.5059 88.832 80.0068 89.4355 81.0088 89.4355C82.0459 89.4355 82.7461 89.0635 83.1094 88.3193V81.4902H85.2451V91H83.2324L83.1797 90.0684ZM89.6924 91H87.5566V77.5H89.6924V91ZM97.708 91C97.6143 90.8184 97.5322 90.5225 97.4619 90.1123C96.7822 90.8213 95.9502 91.1758 94.9658 91.1758C94.0107 91.1758 93.2314 90.9033 92.6279 90.3584C92.0244 89.8135 91.7227 89.1396 91.7227 88.3369C91.7227 87.3232 92.0977 86.5469 92.8477 86.0078C93.6035 85.4629 94.6816 85.1904 96.082 85.1904H97.3916V84.5664C97.3916 84.0742 97.2539 83.6816 96.9785 83.3887C96.7031 83.0898 96.2842 82.9404 95.7217 82.9404C95.2354 82.9404 94.8369 83.0635 94.5264 83.3096C94.2158 83.5498 94.0605 83.8574 94.0605 84.2324H91.9248C91.9248 83.7109 92.0977 83.2246 92.4434 82.7734C92.7891 82.3164 93.2578 81.959 93.8496 81.7012C94.4473 81.4434 95.1123 81.3145 95.8447 81.3145C96.958 81.3145 97.8457 81.5957 98.5078 82.1582C99.1699 82.7148 99.5098 83.5 99.5273 84.5137V88.8027C99.5273 89.6582 99.6475 90.3408 99.8877 90.8506V91H97.708ZM95.3613 89.4619C95.7832 89.4619 96.1787 89.3594 96.5479 89.1543C96.9229 88.9492 97.2041 88.6738 97.3916 88.3281V86.5352H96.2402C95.4492 86.5352 94.8545 86.6729 94.4561 86.9482C94.0576 87.2236 93.8584 87.6133 93.8584 88.1172C93.8584 88.5273 93.9932 88.8555 94.2627 89.1016C94.5381 89.3418 94.9043 89.4619 95.3613 89.4619ZM106.743 83.4414C106.462 83.3945 106.172 83.3711 105.873 83.3711C104.895 83.3711 104.235 83.7461 103.896 84.4961V91H101.76V81.4902H103.799L103.852 82.5537C104.367 81.7275 105.082 81.3145 105.996 81.3145C106.301 81.3145 106.553 81.3555 106.752 81.4375L106.743 83.4414ZM115.251 79.1787V81.4902H116.93V83.0723H115.251V88.3809C115.251 88.7441 115.321 89.0078 115.462 89.1719C115.608 89.3301 115.866 89.4092 116.235 89.4092C116.481 89.4092 116.73 89.3799 116.982 89.3213V90.9736C116.496 91.1084 116.027 91.1758 115.576 91.1758C113.936 91.1758 113.115 90.2705 113.115 88.46V83.0723H111.551V81.4902H113.115V79.1787H115.251ZM120.841 91H118.705V81.4902H120.841V91ZM118.573 79.0205C118.573 78.6924 118.676 78.4199 118.881 78.2031C119.092 77.9863 119.391 77.8779 119.777 77.8779C120.164 77.8779 120.463 77.9863 120.674 78.2031C120.885 78.4199 120.99 78.6924 120.99 79.0205C120.99 79.3428 120.885 79.6123 120.674 79.8291C120.463 80.04 120.164 80.1455 119.777 80.1455C119.391 80.1455 119.092 80.04 118.881 79.8291C118.676 79.6123 118.573 79.3428 118.573 79.0205ZM125.183 81.4902L125.244 82.4834C125.912 81.7041 126.826 81.3145 127.986 81.3145C129.258 81.3145 130.128 81.8008 130.597 82.7734C131.288 81.8008 132.261 81.3145 133.515 81.3145C134.563 81.3145 135.343 81.6045 135.853 82.1846C136.368 82.7646 136.632 83.6201 136.644 84.751V91H134.508V84.8125C134.508 84.209 134.376 83.7666 134.112 83.4854C133.849 83.2041 133.412 83.0635 132.803 83.0635C132.316 83.0635 131.918 83.1953 131.607 83.459C131.303 83.7168 131.089 84.0566 130.966 84.4785L130.975 91H128.839V84.7422C128.81 83.623 128.238 83.0635 127.125 83.0635C126.27 83.0635 125.663 83.4121 125.306 84.1094V91H123.17V81.4902H125.183ZM143.024 91.1758C141.671 91.1758 140.572 90.751 139.729 89.9014C138.891 89.0459 138.472 87.9092 138.472 86.4912V86.2275C138.472 85.2783 138.653 84.4316 139.017 83.6875C139.386 82.9375 139.901 82.3545 140.563 81.9385C141.226 81.5225 141.964 81.3145 142.778 81.3145C144.073 81.3145 145.072 81.7275 145.775 82.5537C146.484 83.3799 146.839 84.5488 146.839 86.0605V86.9219H140.625C140.689 87.707 140.95 88.3281 141.407 88.7852C141.87 89.2422 142.45 89.4707 143.147 89.4707C144.126 89.4707 144.923 89.0752 145.538 88.2842L146.689 89.3828C146.309 89.9512 145.799 90.3936 145.16 90.71C144.527 91.0205 143.815 91.1758 143.024 91.1758ZM142.77 83.0283C142.184 83.0283 141.709 83.2334 141.346 83.6436C140.988 84.0537 140.76 84.625 140.66 85.3574H144.729V85.1992C144.683 84.4844 144.492 83.9453 144.158 83.582C143.824 83.2129 143.361 83.0283 142.77 83.0283Z" fill="#64D03F"/>
<path d="M248.448 128H240.063V126.831L244.493 121.909C245.149 121.165 245.601 120.562 245.847 120.099C246.099 119.63 246.225 119.146 246.225 118.648C246.225 117.98 246.022 117.433 245.618 117.005C245.214 116.577 244.675 116.363 244.001 116.363C243.192 116.363 242.562 116.595 242.111 117.058C241.666 117.515 241.443 118.153 241.443 118.974H239.817C239.817 117.796 240.195 116.844 240.951 116.117C241.713 115.391 242.729 115.027 244.001 115.027C245.19 115.027 246.131 115.341 246.822 115.968C247.514 116.589 247.859 117.418 247.859 118.455C247.859 119.715 247.057 121.215 245.451 122.955L242.023 126.673H248.448V128ZM258.195 122.542C258.195 124.446 257.87 125.861 257.22 126.787C256.569 127.713 255.553 128.176 254.17 128.176C252.805 128.176 251.794 127.725 251.138 126.822C250.481 125.914 250.142 124.561 250.118 122.762V120.591C250.118 118.71 250.443 117.312 251.094 116.398C251.744 115.484 252.764 115.027 254.152 115.027C255.529 115.027 256.543 115.47 257.193 116.354C257.844 117.233 258.178 118.593 258.195 120.433V122.542ZM256.569 120.318C256.569 118.941 256.376 117.939 255.989 117.312C255.603 116.68 254.99 116.363 254.152 116.363C253.32 116.363 252.714 116.677 252.333 117.304C251.952 117.931 251.756 118.895 251.744 120.195V122.797C251.744 124.18 251.943 125.202 252.342 125.864C252.746 126.521 253.355 126.849 254.17 126.849C254.973 126.849 255.567 126.538 255.954 125.917C256.347 125.296 256.552 124.317 256.569 122.981V120.318ZM266.738 124.704C266.738 124.165 266.548 123.711 266.167 123.342C265.792 122.973 265.156 122.639 264.26 122.34C263.012 121.959 262.101 121.464 261.526 120.854C260.958 120.239 260.674 119.46 260.674 118.517C260.674 117.556 260.952 116.768 261.509 116.152C262.071 115.537 262.842 115.171 263.82 115.054V113.129H265.13V115.062C266.114 115.197 266.879 115.61 267.424 116.302C267.975 116.993 268.25 117.939 268.25 119.141H266.633C266.633 118.314 266.437 117.658 266.044 117.172C265.651 116.686 265.121 116.442 264.453 116.442C263.756 116.442 263.223 116.624 262.854 116.987C262.484 117.345 262.3 117.846 262.3 118.49C262.3 119.088 262.493 119.565 262.88 119.923C263.272 120.274 263.914 120.597 264.805 120.89C265.701 121.177 266.398 121.496 266.896 121.848C267.4 122.193 267.77 122.598 268.004 123.061C268.244 123.523 268.364 124.065 268.364 124.687C268.364 125.677 268.065 126.474 267.468 127.077C266.876 127.681 266.044 128.038 264.972 128.149V129.828H263.671V128.149C262.581 128.05 261.726 127.663 261.104 126.989C260.489 126.31 260.182 125.39 260.182 124.229H261.808C261.808 125.044 262.021 125.671 262.449 126.11C262.877 126.55 263.483 126.77 264.269 126.77C265.036 126.77 265.64 126.585 266.079 126.216C266.519 125.847 266.738 125.343 266.738 124.704Z" fill="black"/>
<path d="M8.46387 125.021H3.50684L2.46973 128H0.158203L4.99219 115.203H6.9873L11.8301 128H9.50977L8.46387 125.021ZM4.13086 123.228H7.83984L5.98535 117.919L4.13086 123.228ZM15.9961 125.293L18.0088 118.49H20.2148L16.9189 128H15.0645L11.7422 118.49H13.957L15.9961 125.293ZM25.6201 128.176C24.2666 128.176 23.168 127.751 22.3242 126.901C21.4863 126.046 21.0674 124.909 21.0674 123.491V123.228C21.0674 122.278 21.249 121.432 21.6123 120.688C21.9814 119.938 22.4971 119.354 23.1592 118.938C23.8213 118.522 24.5596 118.314 25.374 118.314C26.6689 118.314 27.668 118.728 28.3711 119.554C29.0801 120.38 29.4346 121.549 29.4346 123.061V123.922H23.2207C23.2852 124.707 23.5459 125.328 24.0029 125.785C24.4658 126.242 25.0459 126.471 25.7432 126.471C26.7217 126.471 27.5186 126.075 28.1338 125.284L29.2852 126.383C28.9043 126.951 28.3945 127.394 27.7559 127.71C27.123 128.021 26.4111 128.176 25.6201 128.176ZM25.3652 120.028C24.7793 120.028 24.3047 120.233 23.9414 120.644C23.584 121.054 23.3555 121.625 23.2559 122.357H27.3252V122.199C27.2783 121.484 27.0879 120.945 26.7539 120.582C26.4199 120.213 25.957 120.028 25.3652 120.028ZM36.0791 120.441C35.7979 120.395 35.5078 120.371 35.209 120.371C34.2305 120.371 33.5713 120.746 33.2314 121.496V128H31.0957V118.49H33.1348L33.1875 119.554C33.7031 118.728 34.418 118.314 35.332 118.314C35.6367 118.314 35.8887 118.355 36.0879 118.438L36.0791 120.441ZM42.8467 128C42.7529 127.818 42.6709 127.522 42.6006 127.112C41.9209 127.821 41.0889 128.176 40.1045 128.176C39.1494 128.176 38.3701 127.903 37.7666 127.358C37.1631 126.813 36.8613 126.14 36.8613 125.337C36.8613 124.323 37.2363 123.547 37.9863 123.008C38.7422 122.463 39.8203 122.19 41.2207 122.19H42.5303V121.566C42.5303 121.074 42.3926 120.682 42.1172 120.389C41.8418 120.09 41.4229 119.94 40.8604 119.94C40.374 119.94 39.9756 120.063 39.665 120.31C39.3545 120.55 39.1992 120.857 39.1992 121.232H37.0635C37.0635 120.711 37.2363 120.225 37.582 119.773C37.9277 119.316 38.3965 118.959 38.9883 118.701C39.5859 118.443 40.251 118.314 40.9834 118.314C42.0967 118.314 42.9844 118.596 43.6465 119.158C44.3086 119.715 44.6484 120.5 44.666 121.514V125.803C44.666 126.658 44.7861 127.341 45.0264 127.851V128H42.8467ZM40.5 126.462C40.9219 126.462 41.3174 126.359 41.6865 126.154C42.0615 125.949 42.3428 125.674 42.5303 125.328V123.535H41.3789C40.5879 123.535 39.9932 123.673 39.5947 123.948C39.1963 124.224 38.9971 124.613 38.9971 125.117C38.9971 125.527 39.1318 125.855 39.4014 126.102C39.6768 126.342 40.043 126.462 40.5 126.462ZM46.5293 123.175C46.5293 121.698 46.875 120.521 47.5664 119.642C48.2637 118.757 49.1865 118.314 50.335 118.314C51.4189 118.314 52.2715 118.692 52.8926 119.448L52.9893 118.49H54.9141V127.71C54.9141 128.958 54.5244 129.942 53.7451 130.663C52.9717 131.384 51.9258 131.744 50.6074 131.744C49.9102 131.744 49.2275 131.598 48.5596 131.305C47.8975 131.018 47.3936 130.64 47.0479 130.171L48.0586 128.888C48.7148 129.667 49.5234 130.057 50.4844 130.057C51.1934 130.057 51.7529 129.863 52.1631 129.477C52.5732 129.096 52.7783 128.533 52.7783 127.789V127.147C52.1631 127.833 51.3428 128.176 50.3174 128.176C49.2041 128.176 48.293 127.733 47.584 126.849C46.8809 125.964 46.5293 124.739 46.5293 123.175ZM48.6562 123.359C48.6562 124.314 48.8496 125.067 49.2363 125.618C49.6289 126.163 50.1709 126.436 50.8623 126.436C51.7236 126.436 52.3623 126.066 52.7783 125.328V121.145C52.374 120.424 51.7412 120.063 50.8799 120.063C50.1768 120.063 49.6289 120.342 49.2363 120.898C48.8496 121.455 48.6562 122.275 48.6562 123.359ZM61.3037 128.176C59.9502 128.176 58.8516 127.751 58.0078 126.901C57.1699 126.046 56.751 124.909 56.751 123.491V123.228C56.751 122.278 56.9326 121.432 57.2959 120.688C57.665 119.938 58.1807 119.354 58.8428 118.938C59.5049 118.522 60.2432 118.314 61.0576 118.314C62.3525 118.314 63.3516 118.728 64.0547 119.554C64.7637 120.38 65.1182 121.549 65.1182 123.061V123.922H58.9043C58.9688 124.707 59.2295 125.328 59.6865 125.785C60.1494 126.242 60.7295 126.471 61.4268 126.471C62.4053 126.471 63.2021 126.075 63.8174 125.284L64.9688 126.383C64.5879 126.951 64.0781 127.394 63.4395 127.71C62.8066 128.021 62.0947 128.176 61.3037 128.176ZM61.0488 120.028C60.4629 120.028 59.9883 120.233 59.625 120.644C59.2676 121.054 59.0391 121.625 58.9395 122.357H63.0088V122.199C62.9619 121.484 62.7715 120.945 62.4375 120.582C62.1035 120.213 61.6406 120.028 61.0488 120.028ZM79.9365 128.176C78.583 128.176 77.4844 127.751 76.6406 126.901C75.8027 126.046 75.3838 124.909 75.3838 123.491V123.228C75.3838 122.278 75.5654 121.432 75.9287 120.688C76.2979 119.938 76.8135 119.354 77.4756 118.938C78.1377 118.522 78.876 118.314 79.6904 118.314C80.9854 118.314 81.9844 118.728 82.6875 119.554C83.3965 120.38 83.751 121.549 83.751 123.061V123.922H77.5371C77.6016 124.707 77.8623 125.328 78.3193 125.785C78.7822 126.242 79.3623 126.471 80.0596 126.471C81.0381 126.471 81.835 126.075 82.4502 125.284L83.6016 126.383C83.2207 126.951 82.7109 127.394 82.0723 127.71C81.4395 128.021 80.7275 128.176 79.9365 128.176ZM79.6816 120.028C79.0957 120.028 78.6211 120.233 78.2578 120.644C77.9004 121.054 77.6719 121.625 77.5723 122.357H81.6416V122.199C81.5947 121.484 81.4043 120.945 81.0703 120.582C80.7363 120.213 80.2734 120.028 79.6816 120.028ZM88.8311 121.619L90.6416 118.49H93.0146L90.1055 123.175L93.1113 128H90.7559L88.8574 124.748L86.9678 128H84.5947L87.6006 123.175L84.7002 118.49H87.0557L88.8311 121.619ZM102.797 123.342C102.797 124.812 102.463 125.987 101.795 126.866C101.127 127.739 100.23 128.176 99.1055 128.176C98.0625 128.176 97.2275 127.833 96.6006 127.147V131.656H94.4648V118.49H96.4336L96.5215 119.457C97.1484 118.695 98.001 118.314 99.0791 118.314C100.239 118.314 101.147 118.748 101.804 119.615C102.466 120.477 102.797 121.675 102.797 123.21V123.342ZM100.67 123.157C100.67 122.208 100.479 121.455 100.099 120.898C99.7236 120.342 99.1846 120.063 98.4814 120.063C97.6084 120.063 96.9814 120.424 96.6006 121.145V125.363C96.9873 126.102 97.6201 126.471 98.499 126.471C99.1787 126.471 99.709 126.198 100.09 125.653C100.477 125.103 100.67 124.271 100.67 123.157ZM108.8 128.176C107.446 128.176 106.348 127.751 105.504 126.901C104.666 126.046 104.247 124.909 104.247 123.491V123.228C104.247 122.278 104.429 121.432 104.792 120.688C105.161 119.938 105.677 119.354 106.339 118.938C107.001 118.522 107.739 118.314 108.554 118.314C109.849 118.314 110.848 118.728 111.551 119.554C112.26 120.38 112.614 121.549 112.614 123.061V123.922H106.4C106.465 124.707 106.726 125.328 107.183 125.785C107.646 126.242 108.226 126.471 108.923 126.471C109.901 126.471 110.698 126.075 111.313 125.284L112.465 126.383C112.084 126.951 111.574 127.394 110.936 127.71C110.303 128.021 109.591 128.176 108.8 128.176ZM108.545 120.028C107.959 120.028 107.484 120.233 107.121 120.644C106.764 121.054 106.535 121.625 106.436 122.357H110.505V122.199C110.458 121.484 110.268 120.945 109.934 120.582C109.6 120.213 109.137 120.028 108.545 120.028ZM116.262 118.49L116.323 119.589C117.026 118.739 117.949 118.314 119.092 118.314C121.072 118.314 122.08 119.448 122.115 121.716V128H119.979V121.839C119.979 121.235 119.848 120.79 119.584 120.503C119.326 120.21 118.901 120.063 118.31 120.063C117.448 120.063 116.807 120.453 116.385 121.232V128H114.249V118.49H116.262ZM123.899 123.175C123.899 121.71 124.239 120.535 124.919 119.65C125.599 118.76 126.51 118.314 127.652 118.314C128.66 118.314 129.475 118.666 130.096 119.369V114.5H132.231V128H130.298L130.192 127.016C129.554 127.789 128.701 128.176 127.635 128.176C126.521 128.176 125.619 127.728 124.928 126.831C124.242 125.935 123.899 124.716 123.899 123.175ZM126.035 123.359C126.035 124.326 126.22 125.082 126.589 125.627C126.964 126.166 127.494 126.436 128.18 126.436C129.053 126.436 129.691 126.046 130.096 125.267V121.206C129.703 120.444 129.07 120.063 128.197 120.063C127.506 120.063 126.973 120.339 126.598 120.89C126.223 121.435 126.035 122.258 126.035 123.359ZM136.731 128H134.596V118.49H136.731V128ZM134.464 116.021C134.464 115.692 134.566 115.42 134.771 115.203C134.982 114.986 135.281 114.878 135.668 114.878C136.055 114.878 136.354 114.986 136.564 115.203C136.775 115.42 136.881 115.692 136.881 116.021C136.881 116.343 136.775 116.612 136.564 116.829C136.354 117.04 136.055 117.146 135.668 117.146C135.281 117.146 134.982 117.04 134.771 116.829C134.566 116.612 134.464 116.343 134.464 116.021ZM141.741 116.179V118.49H143.42V120.072H141.741V125.381C141.741 125.744 141.812 126.008 141.952 126.172C142.099 126.33 142.356 126.409 142.726 126.409C142.972 126.409 143.221 126.38 143.473 126.321V127.974C142.986 128.108 142.518 128.176 142.066 128.176C140.426 128.176 139.605 127.271 139.605 125.46V120.072H138.041V118.49H139.605V116.179H141.741ZM150.82 127.068C150.193 127.807 149.303 128.176 148.148 128.176C147.117 128.176 146.335 127.874 145.802 127.271C145.274 126.667 145.011 125.794 145.011 124.651V118.49H147.146V124.625C147.146 125.832 147.647 126.436 148.649 126.436C149.687 126.436 150.387 126.063 150.75 125.319V118.49H152.886V128H150.873L150.82 127.068ZM160.04 120.441C159.759 120.395 159.469 120.371 159.17 120.371C158.191 120.371 157.532 120.746 157.192 121.496V128H155.057V118.49H157.096L157.148 119.554C157.664 118.728 158.379 118.314 159.293 118.314C159.598 118.314 159.85 118.355 160.049 118.438L160.04 120.441ZM165.401 128.176C164.048 128.176 162.949 127.751 162.105 126.901C161.268 126.046 160.849 124.909 160.849 123.491V123.228C160.849 122.278 161.03 121.432 161.394 120.688C161.763 119.938 162.278 119.354 162.94 118.938C163.603 118.522 164.341 118.314 165.155 118.314C166.45 118.314 167.449 118.728 168.152 119.554C168.861 120.38 169.216 121.549 169.216 123.061V123.922H163.002C163.066 124.707 163.327 125.328 163.784 125.785C164.247 126.242 164.827 126.471 165.524 126.471C166.503 126.471 167.3 126.075 167.915 125.284L169.066 126.383C168.686 126.951 168.176 127.394 167.537 127.71C166.904 128.021 166.192 128.176 165.401 128.176ZM165.146 120.028C164.561 120.028 164.086 120.233 163.723 120.644C163.365 121.054 163.137 121.625 163.037 122.357H167.106V122.199C167.06 121.484 166.869 120.945 166.535 120.582C166.201 120.213 165.738 120.028 165.146 120.028Z" fill="#5A95F2"/>
</svg>
